%TF.GenerationSoftware,KiCad,Pcbnew,7.0.9*%
%TF.CreationDate,2023-11-22T20:54:51-05:00*%
%TF.ProjectId,connectivity_tester,636f6e6e-6563-4746-9976-6974795f7465,rev?*%
%TF.SameCoordinates,Original*%
%TF.FileFunction,Copper,L1,Top*%
%TF.FilePolarity,Positive*%
%FSLAX46Y46*%
G04 Gerber Fmt 4.6, Leading zero omitted, Abs format (unit mm)*
G04 Created by KiCad (PCBNEW 7.0.9) date 2023-11-22 20:54:51*
%MOMM*%
%LPD*%
G01*
G04 APERTURE LIST*
%ADD10C,0.300000*%
%TA.AperFunction,NonConductor*%
%ADD11C,0.300000*%
%TD*%
%TA.AperFunction,ComponentPad*%
%ADD12O,1.600000X1.600000*%
%TD*%
%TA.AperFunction,ComponentPad*%
%ADD13R,1.600000X1.600000*%
%TD*%
%TA.AperFunction,ComponentPad*%
%ADD14R,1.700000X1.700000*%
%TD*%
%TA.AperFunction,ComponentPad*%
%ADD15O,1.700000X1.700000*%
%TD*%
%TA.AperFunction,ComponentPad*%
%ADD16C,1.600000*%
%TD*%
%TA.AperFunction,ComponentPad*%
%ADD17R,1.050000X1.500000*%
%TD*%
%TA.AperFunction,ComponentPad*%
%ADD18O,1.050000X1.500000*%
%TD*%
%TA.AperFunction,Conductor*%
%ADD19C,0.250000*%
%TD*%
G04 APERTURE END LIST*
D10*
D11*
X28351653Y-36900828D02*
X29137368Y-36900828D01*
X29137368Y-36900828D02*
X28351653Y-37900828D01*
X28351653Y-37900828D02*
X29137368Y-37900828D01*
X30351654Y-37900828D02*
X30351654Y-37115114D01*
X30351654Y-37115114D02*
X30280225Y-36972257D01*
X30280225Y-36972257D02*
X30137368Y-36900828D01*
X30137368Y-36900828D02*
X29851654Y-36900828D01*
X29851654Y-36900828D02*
X29708796Y-36972257D01*
X30351654Y-37829400D02*
X30208796Y-37900828D01*
X30208796Y-37900828D02*
X29851654Y-37900828D01*
X29851654Y-37900828D02*
X29708796Y-37829400D01*
X29708796Y-37829400D02*
X29637368Y-37686542D01*
X29637368Y-37686542D02*
X29637368Y-37543685D01*
X29637368Y-37543685D02*
X29708796Y-37400828D01*
X29708796Y-37400828D02*
X29851654Y-37329400D01*
X29851654Y-37329400D02*
X30208796Y-37329400D01*
X30208796Y-37329400D02*
X30351654Y-37257971D01*
X30923082Y-36400828D02*
X31851654Y-36400828D01*
X31851654Y-36400828D02*
X31351654Y-36972257D01*
X31351654Y-36972257D02*
X31565939Y-36972257D01*
X31565939Y-36972257D02*
X31708797Y-37043685D01*
X31708797Y-37043685D02*
X31780225Y-37115114D01*
X31780225Y-37115114D02*
X31851654Y-37257971D01*
X31851654Y-37257971D02*
X31851654Y-37615114D01*
X31851654Y-37615114D02*
X31780225Y-37757971D01*
X31780225Y-37757971D02*
X31708797Y-37829400D01*
X31708797Y-37829400D02*
X31565939Y-37900828D01*
X31565939Y-37900828D02*
X31137368Y-37900828D01*
X31137368Y-37900828D02*
X30994511Y-37829400D01*
X30994511Y-37829400D02*
X30923082Y-37757971D01*
X32494510Y-37900828D02*
X32494510Y-36400828D01*
X32637368Y-37329400D02*
X33065939Y-37900828D01*
X33065939Y-36900828D02*
X32494510Y-37472257D01*
D10*
D11*
X29351653Y-40422971D02*
X29280225Y-40494400D01*
X29280225Y-40494400D02*
X29065939Y-40565828D01*
X29065939Y-40565828D02*
X28923082Y-40565828D01*
X28923082Y-40565828D02*
X28708796Y-40494400D01*
X28708796Y-40494400D02*
X28565939Y-40351542D01*
X28565939Y-40351542D02*
X28494510Y-40208685D01*
X28494510Y-40208685D02*
X28423082Y-39922971D01*
X28423082Y-39922971D02*
X28423082Y-39708685D01*
X28423082Y-39708685D02*
X28494510Y-39422971D01*
X28494510Y-39422971D02*
X28565939Y-39280114D01*
X28565939Y-39280114D02*
X28708796Y-39137257D01*
X28708796Y-39137257D02*
X28923082Y-39065828D01*
X28923082Y-39065828D02*
X29065939Y-39065828D01*
X29065939Y-39065828D02*
X29280225Y-39137257D01*
X29280225Y-39137257D02*
X29351653Y-39208685D01*
X30208796Y-40565828D02*
X30065939Y-40494400D01*
X30065939Y-40494400D02*
X29994510Y-40422971D01*
X29994510Y-40422971D02*
X29923082Y-40280114D01*
X29923082Y-40280114D02*
X29923082Y-39851542D01*
X29923082Y-39851542D02*
X29994510Y-39708685D01*
X29994510Y-39708685D02*
X30065939Y-39637257D01*
X30065939Y-39637257D02*
X30208796Y-39565828D01*
X30208796Y-39565828D02*
X30423082Y-39565828D01*
X30423082Y-39565828D02*
X30565939Y-39637257D01*
X30565939Y-39637257D02*
X30637368Y-39708685D01*
X30637368Y-39708685D02*
X30708796Y-39851542D01*
X30708796Y-39851542D02*
X30708796Y-40280114D01*
X30708796Y-40280114D02*
X30637368Y-40422971D01*
X30637368Y-40422971D02*
X30565939Y-40494400D01*
X30565939Y-40494400D02*
X30423082Y-40565828D01*
X30423082Y-40565828D02*
X30208796Y-40565828D01*
X31351653Y-39565828D02*
X31351653Y-40565828D01*
X31351653Y-39708685D02*
X31423082Y-39637257D01*
X31423082Y-39637257D02*
X31565939Y-39565828D01*
X31565939Y-39565828D02*
X31780225Y-39565828D01*
X31780225Y-39565828D02*
X31923082Y-39637257D01*
X31923082Y-39637257D02*
X31994511Y-39780114D01*
X31994511Y-39780114D02*
X31994511Y-40565828D01*
X32708796Y-39565828D02*
X32708796Y-40565828D01*
X32708796Y-39708685D02*
X32780225Y-39637257D01*
X32780225Y-39637257D02*
X32923082Y-39565828D01*
X32923082Y-39565828D02*
X33137368Y-39565828D01*
X33137368Y-39565828D02*
X33280225Y-39637257D01*
X33280225Y-39637257D02*
X33351654Y-39780114D01*
X33351654Y-39780114D02*
X33351654Y-40565828D01*
X34637368Y-40494400D02*
X34494511Y-40565828D01*
X34494511Y-40565828D02*
X34208797Y-40565828D01*
X34208797Y-40565828D02*
X34065939Y-40494400D01*
X34065939Y-40494400D02*
X33994511Y-40351542D01*
X33994511Y-40351542D02*
X33994511Y-39780114D01*
X33994511Y-39780114D02*
X34065939Y-39637257D01*
X34065939Y-39637257D02*
X34208797Y-39565828D01*
X34208797Y-39565828D02*
X34494511Y-39565828D01*
X34494511Y-39565828D02*
X34637368Y-39637257D01*
X34637368Y-39637257D02*
X34708797Y-39780114D01*
X34708797Y-39780114D02*
X34708797Y-39922971D01*
X34708797Y-39922971D02*
X33994511Y-40065828D01*
X35994511Y-40494400D02*
X35851653Y-40565828D01*
X35851653Y-40565828D02*
X35565939Y-40565828D01*
X35565939Y-40565828D02*
X35423082Y-40494400D01*
X35423082Y-40494400D02*
X35351653Y-40422971D01*
X35351653Y-40422971D02*
X35280225Y-40280114D01*
X35280225Y-40280114D02*
X35280225Y-39851542D01*
X35280225Y-39851542D02*
X35351653Y-39708685D01*
X35351653Y-39708685D02*
X35423082Y-39637257D01*
X35423082Y-39637257D02*
X35565939Y-39565828D01*
X35565939Y-39565828D02*
X35851653Y-39565828D01*
X35851653Y-39565828D02*
X35994511Y-39637257D01*
X36423082Y-39565828D02*
X36994510Y-39565828D01*
X36637367Y-39065828D02*
X36637367Y-40351542D01*
X36637367Y-40351542D02*
X36708796Y-40494400D01*
X36708796Y-40494400D02*
X36851653Y-40565828D01*
X36851653Y-40565828D02*
X36994510Y-40565828D01*
X37494510Y-40565828D02*
X37494510Y-39565828D01*
X37494510Y-39065828D02*
X37423082Y-39137257D01*
X37423082Y-39137257D02*
X37494510Y-39208685D01*
X37494510Y-39208685D02*
X37565939Y-39137257D01*
X37565939Y-39137257D02*
X37494510Y-39065828D01*
X37494510Y-39065828D02*
X37494510Y-39208685D01*
X38065939Y-39565828D02*
X38423082Y-40565828D01*
X38423082Y-40565828D02*
X38780225Y-39565828D01*
X39351653Y-40565828D02*
X39351653Y-39565828D01*
X39351653Y-39065828D02*
X39280225Y-39137257D01*
X39280225Y-39137257D02*
X39351653Y-39208685D01*
X39351653Y-39208685D02*
X39423082Y-39137257D01*
X39423082Y-39137257D02*
X39351653Y-39065828D01*
X39351653Y-39065828D02*
X39351653Y-39208685D01*
X39851654Y-39565828D02*
X40423082Y-39565828D01*
X40065939Y-39065828D02*
X40065939Y-40351542D01*
X40065939Y-40351542D02*
X40137368Y-40494400D01*
X40137368Y-40494400D02*
X40280225Y-40565828D01*
X40280225Y-40565828D02*
X40423082Y-40565828D01*
X40780225Y-39565828D02*
X41137368Y-40565828D01*
X41494511Y-39565828D02*
X41137368Y-40565828D01*
X41137368Y-40565828D02*
X40994511Y-40922971D01*
X40994511Y-40922971D02*
X40923082Y-40994400D01*
X40923082Y-40994400D02*
X40780225Y-41065828D01*
X28280225Y-41480828D02*
X29137368Y-41480828D01*
X28708796Y-42980828D02*
X28708796Y-41480828D01*
X30208796Y-42909400D02*
X30065939Y-42980828D01*
X30065939Y-42980828D02*
X29780225Y-42980828D01*
X29780225Y-42980828D02*
X29637367Y-42909400D01*
X29637367Y-42909400D02*
X29565939Y-42766542D01*
X29565939Y-42766542D02*
X29565939Y-42195114D01*
X29565939Y-42195114D02*
X29637367Y-42052257D01*
X29637367Y-42052257D02*
X29780225Y-41980828D01*
X29780225Y-41980828D02*
X30065939Y-41980828D01*
X30065939Y-41980828D02*
X30208796Y-42052257D01*
X30208796Y-42052257D02*
X30280225Y-42195114D01*
X30280225Y-42195114D02*
X30280225Y-42337971D01*
X30280225Y-42337971D02*
X29565939Y-42480828D01*
X30851653Y-42909400D02*
X30994510Y-42980828D01*
X30994510Y-42980828D02*
X31280224Y-42980828D01*
X31280224Y-42980828D02*
X31423081Y-42909400D01*
X31423081Y-42909400D02*
X31494510Y-42766542D01*
X31494510Y-42766542D02*
X31494510Y-42695114D01*
X31494510Y-42695114D02*
X31423081Y-42552257D01*
X31423081Y-42552257D02*
X31280224Y-42480828D01*
X31280224Y-42480828D02*
X31065939Y-42480828D01*
X31065939Y-42480828D02*
X30923081Y-42409400D01*
X30923081Y-42409400D02*
X30851653Y-42266542D01*
X30851653Y-42266542D02*
X30851653Y-42195114D01*
X30851653Y-42195114D02*
X30923081Y-42052257D01*
X30923081Y-42052257D02*
X31065939Y-41980828D01*
X31065939Y-41980828D02*
X31280224Y-41980828D01*
X31280224Y-41980828D02*
X31423081Y-42052257D01*
X31923082Y-41980828D02*
X32494510Y-41980828D01*
X32137367Y-41480828D02*
X32137367Y-42766542D01*
X32137367Y-42766542D02*
X32208796Y-42909400D01*
X32208796Y-42909400D02*
X32351653Y-42980828D01*
X32351653Y-42980828D02*
X32494510Y-42980828D01*
X33565939Y-42909400D02*
X33423082Y-42980828D01*
X33423082Y-42980828D02*
X33137368Y-42980828D01*
X33137368Y-42980828D02*
X32994510Y-42909400D01*
X32994510Y-42909400D02*
X32923082Y-42766542D01*
X32923082Y-42766542D02*
X32923082Y-42195114D01*
X32923082Y-42195114D02*
X32994510Y-42052257D01*
X32994510Y-42052257D02*
X33137368Y-41980828D01*
X33137368Y-41980828D02*
X33423082Y-41980828D01*
X33423082Y-41980828D02*
X33565939Y-42052257D01*
X33565939Y-42052257D02*
X33637368Y-42195114D01*
X33637368Y-42195114D02*
X33637368Y-42337971D01*
X33637368Y-42337971D02*
X32923082Y-42480828D01*
X34280224Y-42980828D02*
X34280224Y-41980828D01*
X34280224Y-42266542D02*
X34351653Y-42123685D01*
X34351653Y-42123685D02*
X34423082Y-42052257D01*
X34423082Y-42052257D02*
X34565939Y-41980828D01*
X34565939Y-41980828D02*
X34708796Y-41980828D01*
X36208795Y-41980828D02*
X36565938Y-42980828D01*
X36565938Y-42980828D02*
X36923081Y-41980828D01*
X38280224Y-42980828D02*
X37423081Y-42980828D01*
X37851652Y-42980828D02*
X37851652Y-41480828D01*
X37851652Y-41480828D02*
X37708795Y-41695114D01*
X37708795Y-41695114D02*
X37565938Y-41837971D01*
X37565938Y-41837971D02*
X37423081Y-41909400D01*
X38923080Y-42837971D02*
X38994509Y-42909400D01*
X38994509Y-42909400D02*
X38923080Y-42980828D01*
X38923080Y-42980828D02*
X38851652Y-42909400D01*
X38851652Y-42909400D02*
X38923080Y-42837971D01*
X38923080Y-42837971D02*
X38923080Y-42980828D01*
X39923081Y-41480828D02*
X40065938Y-41480828D01*
X40065938Y-41480828D02*
X40208795Y-41552257D01*
X40208795Y-41552257D02*
X40280224Y-41623685D01*
X40280224Y-41623685D02*
X40351652Y-41766542D01*
X40351652Y-41766542D02*
X40423081Y-42052257D01*
X40423081Y-42052257D02*
X40423081Y-42409400D01*
X40423081Y-42409400D02*
X40351652Y-42695114D01*
X40351652Y-42695114D02*
X40280224Y-42837971D01*
X40280224Y-42837971D02*
X40208795Y-42909400D01*
X40208795Y-42909400D02*
X40065938Y-42980828D01*
X40065938Y-42980828D02*
X39923081Y-42980828D01*
X39923081Y-42980828D02*
X39780224Y-42909400D01*
X39780224Y-42909400D02*
X39708795Y-42837971D01*
X39708795Y-42837971D02*
X39637366Y-42695114D01*
X39637366Y-42695114D02*
X39565938Y-42409400D01*
X39565938Y-42409400D02*
X39565938Y-42052257D01*
X39565938Y-42052257D02*
X39637366Y-41766542D01*
X39637366Y-41766542D02*
X39708795Y-41623685D01*
X39708795Y-41623685D02*
X39780224Y-41552257D01*
X39780224Y-41552257D02*
X39923081Y-41480828D01*
D12*
%TO.P,555,8,Vcc*%
%TO.N,Net-(Q1-C)*%
X45720000Y-27940000D03*
%TO.P,555,7,DISCH*%
X45720000Y-30480000D03*
%TO.P,555,6,THRES*%
%TO.N,Net-(U1-THRES)*%
X45720000Y-33020000D03*
%TO.P,555,5,CONT*%
%TO.N,unconnected-(U1-CONT-Pad5)*%
X45720000Y-35560000D03*
%TO.P,555,4,RESET*%
%TO.N,Net-(Q1-C)*%
X38100000Y-35560000D03*
%TO.P,555,3,OUT*%
%TO.N,Net-(U1-OUT)*%
X38100000Y-33020000D03*
%TO.P,555,2,TRIG*%
%TO.N,Net-(U1-THRES)*%
X38100000Y-30480000D03*
D13*
%TO.P,555,1,GND*%
%TO.N,GND*%
X38100000Y-27940000D03*
%TD*%
D14*
%TO.P,SPEAK,1,1*%
%TO.N,+9V*%
X35560000Y-45720000D03*
D15*
%TO.P,SPEAK,2,2*%
%TO.N,Net-(Q2-C)*%
X35560000Y-48260000D03*
%TD*%
D12*
%TO.P,R4,2*%
%TO.N,Net-(U1-THRES)*%
X25400000Y-20320000D03*
D16*
%TO.P,R4,1*%
%TO.N,Net-(R3-Pad2)*%
X17780000Y-20320000D03*
%TD*%
D12*
%TO.P,R3,2*%
%TO.N,Net-(R3-Pad2)*%
X39370000Y-20320000D03*
D16*
%TO.P,R3,1*%
%TO.N,Net-(Q1-C)*%
X46990000Y-20320000D03*
%TD*%
D12*
%TO.P,R2,2*%
%TO.N,Net-(Q2-B)*%
X22860000Y-39370000D03*
D16*
%TO.P,R2,1*%
%TO.N,Net-(U1-OUT)*%
X22860000Y-31750000D03*
%TD*%
%TO.P,R1,1*%
%TO.N,Net-(Q1-B)*%
X17780000Y-49530000D03*
D12*
%TO.P,R1,2*%
%TO.N,Net-(J1-Pin_1)*%
X17780000Y-41910000D03*
%TD*%
D17*
%TO.P,Q2,1,E*%
%TO.N,GND*%
X25400000Y-48260000D03*
D18*
%TO.P,Q2,2,B*%
%TO.N,Net-(Q2-B)*%
X26670000Y-48260000D03*
%TO.P,Q2,3,C*%
%TO.N,Net-(Q2-C)*%
X27940000Y-48260000D03*
%TD*%
D17*
%TO.P,Q1,1,E*%
%TO.N,+9V*%
X43180000Y-48260000D03*
D18*
%TO.P,Q1,2,B*%
%TO.N,Net-(Q1-B)*%
X44450000Y-48260000D03*
%TO.P,Q1,3,C*%
%TO.N,Net-(Q1-C)*%
X45720000Y-48260000D03*
%TD*%
D14*
%TO.P,PROBE,1,Pin_1*%
%TO.N,Net-(J1-Pin_1)*%
X17780000Y-35560000D03*
D15*
%TO.P,PROBE,2,Pin_2*%
%TO.N,GND*%
X17780000Y-33020000D03*
%TD*%
D16*
%TO.P,C1,2*%
%TO.N,GND*%
X35560000Y-20320000D03*
%TO.P,C1,1*%
%TO.N,Net-(U1-THRES)*%
X30560000Y-20320000D03*
%TD*%
D19*
%TO.N,Net-(R3-Pad2)*%
X39370000Y-20320000D02*
X37795000Y-18745000D01*
X37795000Y-18745000D02*
X19355000Y-18745000D01*
X19355000Y-18745000D02*
X17780000Y-20320000D01*
%TO.N,Net-(Q1-C)*%
X45720000Y-30480000D02*
X44595000Y-31605000D01*
X44595000Y-31605000D02*
X44595000Y-33485991D01*
X45254009Y-34145000D02*
X47135000Y-34145000D01*
X44595000Y-33485991D02*
X45254009Y-34145000D01*
X47135000Y-34145000D02*
X48710000Y-32570000D01*
X48710000Y-32570000D02*
X48710000Y-22040000D01*
X48710000Y-22040000D02*
X46990000Y-20320000D01*
X45720000Y-27940000D02*
X45720000Y-30480000D01*
X38100000Y-35560000D02*
X39231370Y-35560000D01*
X39231370Y-35560000D02*
X45720000Y-42048630D01*
X45720000Y-42048630D02*
X45720000Y-48260000D01*
%TO.N,GND*%
X17780000Y-33020000D02*
X20320000Y-30480000D01*
X34435000Y-19195000D02*
X35560000Y-20320000D01*
X20320000Y-30480000D02*
X20320000Y-22385495D01*
X22851486Y-19854009D02*
X24275000Y-19854009D01*
X20320000Y-22385495D02*
X22851486Y-19854009D01*
X24275000Y-19854009D02*
X24934009Y-19195000D01*
X24934009Y-19195000D02*
X34435000Y-19195000D01*
X17780000Y-33020000D02*
X19195000Y-34435000D01*
X19195000Y-34435000D02*
X19195000Y-42055000D01*
X19195000Y-42055000D02*
X25400000Y-48260000D01*
X17780000Y-33020000D02*
X21271802Y-29528198D01*
X21271802Y-29528198D02*
X33971802Y-29528198D01*
X33971802Y-29528198D02*
X35373604Y-30930000D01*
X37634009Y-31605000D02*
X38565991Y-31605000D01*
X39225000Y-29065000D02*
X38100000Y-27940000D01*
X35373604Y-30930000D02*
X36959009Y-30930000D01*
X36959009Y-30930000D02*
X37634009Y-31605000D01*
X38565991Y-31605000D02*
X39225000Y-30945991D01*
X39225000Y-30945991D02*
X39225000Y-29065000D01*
%TO.N,Net-(Q1-C)*%
X45720000Y-30480000D02*
X43180000Y-30480000D01*
X43180000Y-30480000D02*
X38100000Y-35560000D01*
%TO.N,Net-(U1-THRES)*%
X33100000Y-22860000D02*
X48260000Y-22860000D01*
X48260000Y-22860000D02*
X48260000Y-30480000D01*
X30560000Y-20320000D02*
X33100000Y-22860000D01*
X48260000Y-30480000D02*
X45720000Y-33020000D01*
X30560000Y-25480000D02*
X35560000Y-30480000D01*
X30560000Y-20320000D02*
X30560000Y-25480000D01*
X35560000Y-30480000D02*
X38100000Y-30480000D01*
%TO.N,Net-(Q1-B)*%
X17780000Y-49530000D02*
X44180000Y-49530000D01*
X44180000Y-49530000D02*
X44450000Y-49260000D01*
X44450000Y-49260000D02*
X44450000Y-48260000D01*
%TO.N,Net-(Q2-C)*%
X27940000Y-48260000D02*
X35560000Y-48260000D01*
%TO.N,+9V*%
X35560000Y-45720000D02*
X40640000Y-45720000D01*
X40640000Y-45720000D02*
X43180000Y-48260000D01*
%TO.N,Net-(U1-OUT)*%
X22860000Y-31750000D02*
X36830000Y-31750000D01*
X36830000Y-31750000D02*
X38100000Y-33020000D01*
%TO.N,Net-(Q2-B)*%
X22860000Y-39370000D02*
X24130000Y-39370000D01*
X24130000Y-39370000D02*
X26670000Y-41910000D01*
X26670000Y-41910000D02*
X26670000Y-48260000D01*
%TO.N,Net-(J1-Pin_1)*%
X17780000Y-35560000D02*
X17780000Y-41910000D01*
%TO.N,Net-(U1-THRES)*%
X25400000Y-20320000D02*
X30560000Y-20320000D01*
%TD*%
%TA.AperFunction,Conductor*%
%TO.N,GND*%
G36*
X48275677Y-17799685D02*
G01*
X48296319Y-17816319D01*
X50763681Y-20283681D01*
X50797166Y-20345004D01*
X50800000Y-20371362D01*
X50800000Y-48208638D01*
X50780315Y-48275677D01*
X50763681Y-48296319D01*
X48296319Y-50763681D01*
X48234996Y-50797166D01*
X48208638Y-50800000D01*
X18626883Y-50800000D01*
X18559844Y-50780315D01*
X18514089Y-50727511D01*
X18504145Y-50658353D01*
X18533170Y-50594797D01*
X18555760Y-50574425D01*
X18619139Y-50530047D01*
X18780047Y-50369139D01*
X18892613Y-50208377D01*
X18947189Y-50164752D01*
X18994188Y-50155500D01*
X44097257Y-50155500D01*
X44112877Y-50157224D01*
X44112904Y-50156939D01*
X44120660Y-50157671D01*
X44120667Y-50157673D01*
X44189814Y-50155500D01*
X44219350Y-50155500D01*
X44226228Y-50154630D01*
X44232041Y-50154172D01*
X44278627Y-50152709D01*
X44297869Y-50147117D01*
X44316912Y-50143174D01*
X44336792Y-50140664D01*
X44380122Y-50123507D01*
X44385646Y-50121617D01*
X44389396Y-50120527D01*
X44430390Y-50108618D01*
X44447629Y-50098422D01*
X44465103Y-50089862D01*
X44483727Y-50082488D01*
X44483727Y-50082487D01*
X44483732Y-50082486D01*
X44521449Y-50055082D01*
X44526305Y-50051892D01*
X44566420Y-50028170D01*
X44580589Y-50013999D01*
X44595379Y-50001368D01*
X44611587Y-49989594D01*
X44641299Y-49953676D01*
X44645212Y-49949376D01*
X44833786Y-49760802D01*
X44846048Y-49750980D01*
X44845865Y-49750759D01*
X44851867Y-49745792D01*
X44851877Y-49745786D01*
X44899241Y-49695348D01*
X44920120Y-49674470D01*
X44924373Y-49668986D01*
X44928150Y-49664563D01*
X44960062Y-49630582D01*
X44969714Y-49613023D01*
X44980389Y-49596772D01*
X44992674Y-49580936D01*
X45011186Y-49538152D01*
X45013742Y-49532935D01*
X45036197Y-49492092D01*
X45041180Y-49472680D01*
X45047480Y-49454284D01*
X45052321Y-49443096D01*
X45097014Y-49389391D01*
X45163648Y-49368374D01*
X45224571Y-49382990D01*
X45325659Y-49437023D01*
X45518967Y-49495662D01*
X45720000Y-49515462D01*
X45921033Y-49495662D01*
X46114341Y-49437023D01*
X46116452Y-49435895D01*
X46207961Y-49386982D01*
X46292494Y-49341798D01*
X46448647Y-49213647D01*
X46576798Y-49057494D01*
X46672023Y-48879341D01*
X46730662Y-48686033D01*
X46745500Y-48535380D01*
X46745500Y-47984620D01*
X46730662Y-47833967D01*
X46672023Y-47640659D01*
X46672021Y-47640656D01*
X46672021Y-47640654D01*
X46576801Y-47462511D01*
X46576799Y-47462509D01*
X46576798Y-47462506D01*
X46516145Y-47388600D01*
X46448647Y-47306352D01*
X46390835Y-47258907D01*
X46351501Y-47201161D01*
X46345500Y-47163054D01*
X46345500Y-42131372D01*
X46347224Y-42115752D01*
X46346939Y-42115725D01*
X46347673Y-42107963D01*
X46345500Y-42038802D01*
X46345500Y-42009286D01*
X46345500Y-42009280D01*
X46344631Y-42002409D01*
X46344173Y-41996582D01*
X46343622Y-41979048D01*
X46342710Y-41950003D01*
X46337119Y-41930760D01*
X46333173Y-41911708D01*
X46330664Y-41891838D01*
X46313504Y-41848497D01*
X46311624Y-41843009D01*
X46298618Y-41798240D01*
X46288422Y-41781000D01*
X46279861Y-41763524D01*
X46272487Y-41744900D01*
X46272486Y-41744898D01*
X46245079Y-41707175D01*
X46241888Y-41702316D01*
X46218172Y-41662213D01*
X46218165Y-41662204D01*
X46204006Y-41648045D01*
X46191368Y-41633249D01*
X46185297Y-41624893D01*
X46179594Y-41617043D01*
X46166570Y-41606269D01*
X46143688Y-41587339D01*
X46139376Y-41583416D01*
X39732173Y-35176212D01*
X39722350Y-35163950D01*
X39722129Y-35164134D01*
X39717156Y-35158123D01*
X39666734Y-35110773D01*
X39656287Y-35100326D01*
X39645841Y-35089879D01*
X39643307Y-35087645D01*
X39606041Y-35028544D01*
X39606644Y-34958677D01*
X39637632Y-34906957D01*
X43402772Y-31141819D01*
X43464095Y-31108334D01*
X43490453Y-31105500D01*
X43940826Y-31105500D01*
X44007865Y-31125185D01*
X44053620Y-31177989D01*
X44063564Y-31247147D01*
X44054626Y-31278749D01*
X44033815Y-31326838D01*
X44031245Y-31332084D01*
X44008803Y-31372906D01*
X44003822Y-31392307D01*
X43997521Y-31410710D01*
X43989562Y-31429102D01*
X43989561Y-31429105D01*
X43982271Y-31475127D01*
X43981087Y-31480846D01*
X43969501Y-31525972D01*
X43969500Y-31525982D01*
X43969500Y-31546016D01*
X43967973Y-31565415D01*
X43964840Y-31585194D01*
X43964840Y-31585195D01*
X43969225Y-31631583D01*
X43969500Y-31637421D01*
X43969500Y-33403246D01*
X43967775Y-33418863D01*
X43968061Y-33418890D01*
X43967326Y-33426656D01*
X43969500Y-33495805D01*
X43969500Y-33525334D01*
X43969501Y-33525351D01*
X43970368Y-33532222D01*
X43970826Y-33538041D01*
X43972290Y-33584615D01*
X43972291Y-33584618D01*
X43977880Y-33603858D01*
X43981824Y-33622902D01*
X43984336Y-33642783D01*
X43996194Y-33672734D01*
X44001490Y-33686110D01*
X44003382Y-33691638D01*
X44016381Y-33736379D01*
X44026580Y-33753625D01*
X44035138Y-33771094D01*
X44042514Y-33789723D01*
X44069898Y-33827414D01*
X44073106Y-33832298D01*
X44096827Y-33872407D01*
X44096833Y-33872415D01*
X44110990Y-33886571D01*
X44123628Y-33901367D01*
X44135405Y-33917577D01*
X44135406Y-33917578D01*
X44171309Y-33947279D01*
X44175620Y-33951201D01*
X44626800Y-34402382D01*
X44744934Y-34520516D01*
X44778419Y-34581839D01*
X44773435Y-34651531D01*
X44744936Y-34695877D01*
X44719952Y-34720861D01*
X44589432Y-34907265D01*
X44589431Y-34907267D01*
X44493261Y-35113502D01*
X44493258Y-35113511D01*
X44434366Y-35333302D01*
X44434364Y-35333313D01*
X44414532Y-35559998D01*
X44414532Y-35560001D01*
X44434364Y-35786686D01*
X44434366Y-35786697D01*
X44493258Y-36006488D01*
X44493261Y-36006497D01*
X44589431Y-36212732D01*
X44589432Y-36212734D01*
X44719954Y-36399141D01*
X44880858Y-36560045D01*
X44880861Y-36560047D01*
X45067266Y-36690568D01*
X45273504Y-36786739D01*
X45493308Y-36845635D01*
X45655230Y-36859801D01*
X45719998Y-36865468D01*
X45720000Y-36865468D01*
X45720002Y-36865468D01*
X45776673Y-36860509D01*
X45946692Y-36845635D01*
X46166496Y-36786739D01*
X46372734Y-36690568D01*
X46559139Y-36560047D01*
X46720047Y-36399139D01*
X46850568Y-36212734D01*
X46946739Y-36006496D01*
X47005635Y-35786692D01*
X47025468Y-35560000D01*
X47005635Y-35333308D01*
X46946739Y-35113504D01*
X46869051Y-34946904D01*
X46858560Y-34877827D01*
X46887080Y-34814043D01*
X46945556Y-34775804D01*
X46981434Y-34770500D01*
X47052257Y-34770500D01*
X47067877Y-34772224D01*
X47067904Y-34771939D01*
X47075660Y-34772671D01*
X47075667Y-34772673D01*
X47144814Y-34770500D01*
X47174350Y-34770500D01*
X47181228Y-34769630D01*
X47187041Y-34769172D01*
X47233627Y-34767709D01*
X47252869Y-34762117D01*
X47271912Y-34758174D01*
X47291792Y-34755664D01*
X47335122Y-34738507D01*
X47340646Y-34736617D01*
X47344396Y-34735527D01*
X47385390Y-34723618D01*
X47402629Y-34713422D01*
X47420103Y-34704862D01*
X47438727Y-34697488D01*
X47438727Y-34697487D01*
X47438732Y-34697486D01*
X47476449Y-34670082D01*
X47481305Y-34666892D01*
X47521420Y-34643170D01*
X47535589Y-34628999D01*
X47550379Y-34616368D01*
X47566587Y-34604594D01*
X47596299Y-34568676D01*
X47600212Y-34564376D01*
X49093787Y-33070801D01*
X49106042Y-33060986D01*
X49105859Y-33060764D01*
X49111866Y-33055792D01*
X49111877Y-33055786D01*
X49145484Y-33019998D01*
X49159227Y-33005364D01*
X49169671Y-32994918D01*
X49180120Y-32984471D01*
X49184379Y-32978978D01*
X49188152Y-32974561D01*
X49220062Y-32940582D01*
X49229713Y-32923024D01*
X49240396Y-32906761D01*
X49252673Y-32890936D01*
X49271185Y-32848153D01*
X49273738Y-32842941D01*
X49296197Y-32802092D01*
X49301180Y-32782680D01*
X49307481Y-32764280D01*
X49315437Y-32745896D01*
X49322729Y-32699852D01*
X49323906Y-32694171D01*
X49335500Y-32649019D01*
X49335500Y-32628983D01*
X49337027Y-32609582D01*
X49339329Y-32595048D01*
X49340160Y-32589804D01*
X49335775Y-32543415D01*
X49335500Y-32537577D01*
X49335500Y-22122737D01*
X49337224Y-22107123D01*
X49336938Y-22107096D01*
X49337672Y-22099333D01*
X49335500Y-22030203D01*
X49335500Y-22000651D01*
X49335500Y-22000650D01*
X49334629Y-21993759D01*
X49334172Y-21987945D01*
X49332709Y-21941373D01*
X49327121Y-21922139D01*
X49323174Y-21903081D01*
X49320664Y-21883208D01*
X49303507Y-21839875D01*
X49301614Y-21834346D01*
X49288618Y-21789614D01*
X49288617Y-21789610D01*
X49278420Y-21772368D01*
X49269863Y-21754902D01*
X49262486Y-21736268D01*
X49235083Y-21698550D01*
X49231900Y-21693705D01*
X49208170Y-21653579D01*
X49208165Y-21653573D01*
X49194005Y-21639413D01*
X49181370Y-21624620D01*
X49169593Y-21608412D01*
X49133693Y-21578713D01*
X49129381Y-21574790D01*
X48289413Y-20734822D01*
X48255928Y-20673499D01*
X48257319Y-20615048D01*
X48275635Y-20546692D01*
X48295468Y-20320000D01*
X48294096Y-20304323D01*
X48275635Y-20093313D01*
X48275635Y-20093308D01*
X48216739Y-19873504D01*
X48120568Y-19667266D01*
X48022839Y-19527693D01*
X47990045Y-19480858D01*
X47829141Y-19319954D01*
X47642734Y-19189432D01*
X47642732Y-19189431D01*
X47436497Y-19093261D01*
X47436488Y-19093258D01*
X47216697Y-19034366D01*
X47216693Y-19034365D01*
X47216692Y-19034365D01*
X47216691Y-19034364D01*
X47216686Y-19034364D01*
X46990002Y-19014532D01*
X46989998Y-19014532D01*
X46763313Y-19034364D01*
X46763302Y-19034366D01*
X46543511Y-19093258D01*
X46543502Y-19093261D01*
X46337267Y-19189431D01*
X46337265Y-19189432D01*
X46150858Y-19319954D01*
X45989954Y-19480858D01*
X45859432Y-19667265D01*
X45859431Y-19667267D01*
X45763261Y-19873502D01*
X45763258Y-19873511D01*
X45704366Y-20093302D01*
X45704364Y-20093313D01*
X45684532Y-20319998D01*
X45684532Y-20320001D01*
X45704364Y-20546686D01*
X45704366Y-20546697D01*
X45763258Y-20766488D01*
X45763261Y-20766497D01*
X45859431Y-20972732D01*
X45859432Y-20972734D01*
X45989954Y-21159141D01*
X46150858Y-21320045D01*
X46150861Y-21320047D01*
X46337266Y-21450568D01*
X46543504Y-21546739D01*
X46763308Y-21605635D01*
X46920791Y-21619413D01*
X46989998Y-21625468D01*
X46990000Y-21625468D01*
X46990002Y-21625468D01*
X47046673Y-21620509D01*
X47216692Y-21605635D01*
X47285048Y-21587319D01*
X47354897Y-21588982D01*
X47404822Y-21619413D01*
X47808228Y-22022819D01*
X47841713Y-22084142D01*
X47836729Y-22153834D01*
X47794857Y-22209767D01*
X47729393Y-22234184D01*
X47720547Y-22234500D01*
X33410453Y-22234500D01*
X33343414Y-22214815D01*
X33322772Y-22198181D01*
X31859413Y-20734822D01*
X31825928Y-20673499D01*
X31827319Y-20615048D01*
X31845635Y-20546692D01*
X31865468Y-20320000D01*
X31864096Y-20304323D01*
X31845635Y-20093313D01*
X31845635Y-20093308D01*
X31786739Y-19873504D01*
X31690568Y-19667266D01*
X31619396Y-19565621D01*
X31597070Y-19499417D01*
X31614080Y-19431650D01*
X31665028Y-19383837D01*
X31720972Y-19370500D01*
X34399638Y-19370500D01*
X34466677Y-19390185D01*
X34512432Y-19442989D01*
X34522376Y-19512147D01*
X34501213Y-19565624D01*
X34429866Y-19667517D01*
X34333734Y-19873673D01*
X34333730Y-19873682D01*
X34274860Y-20093389D01*
X34274858Y-20093400D01*
X34255034Y-20319997D01*
X34255034Y-20320002D01*
X34274858Y-20546599D01*
X34274860Y-20546610D01*
X34333730Y-20766317D01*
X34333734Y-20766326D01*
X34429865Y-20972481D01*
X34429866Y-20972483D01*
X34480973Y-21045471D01*
X34480973Y-21045472D01*
X35162045Y-20364399D01*
X35174835Y-20445148D01*
X35232359Y-20558045D01*
X35321955Y-20647641D01*
X35434852Y-20705165D01*
X35515599Y-20717953D01*
X34834526Y-21399025D01*
X34834526Y-21399026D01*
X34907512Y-21450131D01*
X34907516Y-21450133D01*
X35113673Y-21546265D01*
X35113682Y-21546269D01*
X35333389Y-21605139D01*
X35333400Y-21605141D01*
X35559998Y-21624966D01*
X35560002Y-21624966D01*
X35786599Y-21605141D01*
X35786610Y-21605139D01*
X36006317Y-21546269D01*
X36006331Y-21546264D01*
X36212478Y-21450136D01*
X36285472Y-21399025D01*
X35604401Y-20717953D01*
X35685148Y-20705165D01*
X35798045Y-20647641D01*
X35887641Y-20558045D01*
X35945165Y-20445148D01*
X35957953Y-20364400D01*
X36639025Y-21045472D01*
X36690136Y-20972478D01*
X36786264Y-20766331D01*
X36786269Y-20766317D01*
X36845139Y-20546610D01*
X36845141Y-20546599D01*
X36864966Y-20320002D01*
X36864966Y-20319997D01*
X36845141Y-20093400D01*
X36845139Y-20093389D01*
X36786269Y-19873682D01*
X36786265Y-19873673D01*
X36690133Y-19667517D01*
X36618787Y-19565624D01*
X36596460Y-19499418D01*
X36613470Y-19431650D01*
X36664418Y-19383837D01*
X36720362Y-19370500D01*
X37484548Y-19370500D01*
X37551587Y-19390185D01*
X37572229Y-19406819D01*
X38070586Y-19905177D01*
X38104071Y-19966500D01*
X38102680Y-20024949D01*
X38084367Y-20093296D01*
X38084364Y-20093313D01*
X38064532Y-20319999D01*
X38064532Y-20320001D01*
X38084364Y-20546686D01*
X38084366Y-20546697D01*
X38143258Y-20766488D01*
X38143261Y-20766497D01*
X38239431Y-20972732D01*
X38239432Y-20972734D01*
X38369954Y-21159141D01*
X38530858Y-21320045D01*
X38530861Y-21320047D01*
X38717266Y-21450568D01*
X38923504Y-21546739D01*
X39143308Y-21605635D01*
X39300791Y-21619413D01*
X39369998Y-21625468D01*
X39370000Y-21625468D01*
X39370002Y-21625468D01*
X39426673Y-21620509D01*
X39596692Y-21605635D01*
X39816496Y-21546739D01*
X40022734Y-21450568D01*
X40209139Y-21320047D01*
X40370047Y-21159139D01*
X40500568Y-20972734D01*
X40596739Y-20766496D01*
X40655635Y-20546692D01*
X40675468Y-20320000D01*
X40674096Y-20304323D01*
X40655635Y-20093313D01*
X40655635Y-20093308D01*
X40596739Y-19873504D01*
X40500568Y-19667266D01*
X40402839Y-19527693D01*
X40370045Y-19480858D01*
X40209141Y-19319954D01*
X40022734Y-19189432D01*
X40022732Y-19189431D01*
X39816497Y-19093261D01*
X39816488Y-19093258D01*
X39596697Y-19034366D01*
X39596693Y-19034365D01*
X39596692Y-19034365D01*
X39596691Y-19034364D01*
X39596686Y-19034364D01*
X39370002Y-19014532D01*
X39369999Y-19014532D01*
X39143313Y-19034364D01*
X39143296Y-19034367D01*
X39074949Y-19052680D01*
X39005099Y-19051016D01*
X38955177Y-19020586D01*
X38295803Y-18361212D01*
X38285980Y-18348950D01*
X38285759Y-18349134D01*
X38280786Y-18343123D01*
X38262159Y-18325631D01*
X38230364Y-18295773D01*
X38219919Y-18285328D01*
X38209475Y-18274883D01*
X38203986Y-18270625D01*
X38199561Y-18266847D01*
X38165582Y-18234938D01*
X38165580Y-18234936D01*
X38165577Y-18234935D01*
X38148029Y-18225288D01*
X38131763Y-18214604D01*
X38115933Y-18202325D01*
X38073168Y-18183818D01*
X38067922Y-18181248D01*
X38027093Y-18158803D01*
X38027092Y-18158802D01*
X38007693Y-18153822D01*
X37989281Y-18147518D01*
X37970898Y-18139562D01*
X37970892Y-18139560D01*
X37924874Y-18132272D01*
X37919152Y-18131087D01*
X37874021Y-18119500D01*
X37874019Y-18119500D01*
X37853984Y-18119500D01*
X37834586Y-18117973D01*
X37827162Y-18116797D01*
X37814805Y-18114840D01*
X37814804Y-18114840D01*
X37768416Y-18119225D01*
X37762578Y-18119500D01*
X19437737Y-18119500D01*
X19422120Y-18117776D01*
X19422093Y-18118062D01*
X19414331Y-18117327D01*
X19345203Y-18119500D01*
X19315650Y-18119500D01*
X19314929Y-18119590D01*
X19308757Y-18120369D01*
X19302945Y-18120826D01*
X19256372Y-18122290D01*
X19256369Y-18122291D01*
X19237126Y-18127881D01*
X19218083Y-18131825D01*
X19198204Y-18134336D01*
X19198203Y-18134337D01*
X19154878Y-18151490D01*
X19149352Y-18153382D01*
X19104608Y-18166383D01*
X19104604Y-18166385D01*
X19087365Y-18176580D01*
X19069898Y-18185137D01*
X19051269Y-18192512D01*
X19051267Y-18192513D01*
X19013564Y-18219906D01*
X19008682Y-18223112D01*
X18968580Y-18246828D01*
X18954408Y-18261000D01*
X18939623Y-18273628D01*
X18923412Y-18285407D01*
X18893709Y-18321310D01*
X18889777Y-18325631D01*
X18194821Y-19020586D01*
X18133498Y-19054071D01*
X18075048Y-19052680D01*
X18006697Y-19034366D01*
X18006693Y-19034365D01*
X18006692Y-19034365D01*
X17893346Y-19024448D01*
X17780001Y-19014532D01*
X17779998Y-19014532D01*
X17553313Y-19034364D01*
X17553302Y-19034366D01*
X17333511Y-19093258D01*
X17333502Y-19093261D01*
X17127267Y-19189431D01*
X17127265Y-19189432D01*
X16940858Y-19319954D01*
X16779954Y-19480858D01*
X16649432Y-19667265D01*
X16649431Y-19667267D01*
X16553261Y-19873502D01*
X16553258Y-19873511D01*
X16494366Y-20093302D01*
X16494364Y-20093313D01*
X16474532Y-20319998D01*
X16474532Y-20320001D01*
X16494364Y-20546686D01*
X16494366Y-20546697D01*
X16553258Y-20766488D01*
X16553261Y-20766497D01*
X16649431Y-20972732D01*
X16649432Y-20972734D01*
X16779954Y-21159141D01*
X16940858Y-21320045D01*
X16940861Y-21320047D01*
X17127266Y-21450568D01*
X17333504Y-21546739D01*
X17553308Y-21605635D01*
X17710791Y-21619413D01*
X17779998Y-21625468D01*
X17780000Y-21625468D01*
X17780002Y-21625468D01*
X17836673Y-21620509D01*
X18006692Y-21605635D01*
X18226496Y-21546739D01*
X18432734Y-21450568D01*
X18619139Y-21320047D01*
X18780047Y-21159139D01*
X18910568Y-20972734D01*
X19006739Y-20766496D01*
X19065635Y-20546692D01*
X19085468Y-20320000D01*
X19084096Y-20304323D01*
X19065635Y-20093313D01*
X19065635Y-20093308D01*
X19047318Y-20024948D01*
X19048981Y-19955103D01*
X19079410Y-19905179D01*
X19577772Y-19406819D01*
X19639095Y-19373334D01*
X19665453Y-19370500D01*
X24239028Y-19370500D01*
X24306067Y-19390185D01*
X24351822Y-19442989D01*
X24361766Y-19512147D01*
X24340603Y-19565623D01*
X24269432Y-19667265D01*
X24269431Y-19667267D01*
X24173261Y-19873502D01*
X24173258Y-19873511D01*
X24114366Y-20093302D01*
X24114364Y-20093313D01*
X24094532Y-20319998D01*
X24094532Y-20320001D01*
X24114364Y-20546686D01*
X24114366Y-20546697D01*
X24173258Y-20766488D01*
X24173261Y-20766497D01*
X24269431Y-20972732D01*
X24269432Y-20972734D01*
X24399954Y-21159141D01*
X24560858Y-21320045D01*
X24560861Y-21320047D01*
X24747266Y-21450568D01*
X24953504Y-21546739D01*
X25173308Y-21605635D01*
X25330791Y-21619413D01*
X25399998Y-21625468D01*
X25400000Y-21625468D01*
X25400002Y-21625468D01*
X25456673Y-21620509D01*
X25626692Y-21605635D01*
X25846496Y-21546739D01*
X26052734Y-21450568D01*
X26239139Y-21320047D01*
X26400047Y-21159139D01*
X26512613Y-20998377D01*
X26567189Y-20954752D01*
X26614188Y-20945500D01*
X29345812Y-20945500D01*
X29412851Y-20965185D01*
X29447387Y-20998377D01*
X29559954Y-21159141D01*
X29720858Y-21320045D01*
X29881623Y-21432613D01*
X29925248Y-21487189D01*
X29934500Y-21534188D01*
X29934500Y-25397255D01*
X29932775Y-25412872D01*
X29933061Y-25412899D01*
X29932326Y-25420665D01*
X29934500Y-25489814D01*
X29934500Y-25519343D01*
X29934501Y-25519360D01*
X29935368Y-25526231D01*
X29935826Y-25532050D01*
X29937290Y-25578624D01*
X29937291Y-25578627D01*
X29942880Y-25597867D01*
X29946824Y-25616911D01*
X29949336Y-25636791D01*
X29966490Y-25680119D01*
X29968382Y-25685647D01*
X29981381Y-25730388D01*
X29991580Y-25747634D01*
X30000138Y-25765103D01*
X30007514Y-25783732D01*
X30034898Y-25821423D01*
X30038106Y-25826307D01*
X30061827Y-25866416D01*
X30061833Y-25866424D01*
X30075990Y-25880580D01*
X30088628Y-25895376D01*
X30100405Y-25911586D01*
X30100406Y-25911587D01*
X30136309Y-25941288D01*
X30140620Y-25945210D01*
X33836267Y-29640858D01*
X35059197Y-30863788D01*
X35069022Y-30876051D01*
X35069243Y-30875869D01*
X35074210Y-30881874D01*
X35104276Y-30910107D01*
X35139671Y-30970348D01*
X35136879Y-31040162D01*
X35096786Y-31097383D01*
X35032121Y-31123845D01*
X35019393Y-31124500D01*
X24074188Y-31124500D01*
X24007149Y-31104815D01*
X23972613Y-31071623D01*
X23860045Y-30910858D01*
X23699141Y-30749954D01*
X23512734Y-30619432D01*
X23512732Y-30619431D01*
X23306497Y-30523261D01*
X23306488Y-30523258D01*
X23086697Y-30464366D01*
X23086693Y-30464365D01*
X23086692Y-30464365D01*
X23086691Y-30464364D01*
X23086686Y-30464364D01*
X22860002Y-30444532D01*
X22859998Y-30444532D01*
X22633313Y-30464364D01*
X22633302Y-30464366D01*
X22413511Y-30523258D01*
X22413502Y-30523261D01*
X22207267Y-30619431D01*
X22207265Y-30619432D01*
X22020858Y-30749954D01*
X21859954Y-30910858D01*
X21729432Y-31097265D01*
X21729431Y-31097267D01*
X21633261Y-31303502D01*
X21633258Y-31303511D01*
X21574366Y-31523302D01*
X21574364Y-31523313D01*
X21554532Y-31749998D01*
X21554532Y-31750001D01*
X21574364Y-31976686D01*
X21574366Y-31976697D01*
X21633258Y-32196488D01*
X21633261Y-32196497D01*
X21729431Y-32402732D01*
X21729432Y-32402734D01*
X21859954Y-32589141D01*
X22020858Y-32750045D01*
X22020861Y-32750047D01*
X22207266Y-32880568D01*
X22413504Y-32976739D01*
X22633308Y-33035635D01*
X22795230Y-33049801D01*
X22859998Y-33055468D01*
X22860000Y-33055468D01*
X22860002Y-33055468D01*
X22916673Y-33050509D01*
X23086692Y-33035635D01*
X23306496Y-32976739D01*
X23512734Y-32880568D01*
X23699139Y-32750047D01*
X23860047Y-32589139D01*
X23972613Y-32428377D01*
X24027189Y-32384752D01*
X24074188Y-32375500D01*
X36519548Y-32375500D01*
X36586587Y-32395185D01*
X36607229Y-32411819D01*
X36800586Y-32605177D01*
X36834071Y-32666500D01*
X36832680Y-32724949D01*
X36814367Y-32793296D01*
X36814364Y-32793313D01*
X36794532Y-33019999D01*
X36794532Y-33020001D01*
X36814364Y-33246686D01*
X36814366Y-33246697D01*
X36873258Y-33466488D01*
X36873261Y-33466497D01*
X36969431Y-33672732D01*
X36969432Y-33672734D01*
X37099954Y-33859141D01*
X37260858Y-34020045D01*
X37260861Y-34020047D01*
X37447266Y-34150568D01*
X37505275Y-34177618D01*
X37557714Y-34223791D01*
X37576866Y-34290984D01*
X37556650Y-34357865D01*
X37505275Y-34402382D01*
X37447267Y-34429431D01*
X37447265Y-34429432D01*
X37260858Y-34559954D01*
X37099954Y-34720858D01*
X36969432Y-34907265D01*
X36969431Y-34907267D01*
X36873261Y-35113502D01*
X36873258Y-35113511D01*
X36814366Y-35333302D01*
X36814364Y-35333313D01*
X36794532Y-35559998D01*
X36794532Y-35560001D01*
X36814364Y-35786686D01*
X36814366Y-35786697D01*
X36873258Y-36006488D01*
X36873261Y-36006497D01*
X36969431Y-36212732D01*
X36969432Y-36212734D01*
X37099954Y-36399141D01*
X37260858Y-36560045D01*
X37260861Y-36560047D01*
X37447266Y-36690568D01*
X37653504Y-36786739D01*
X37873308Y-36845635D01*
X38035230Y-36859801D01*
X38099998Y-36865468D01*
X38100000Y-36865468D01*
X38100002Y-36865468D01*
X38156673Y-36860509D01*
X38326692Y-36845635D01*
X38546496Y-36786739D01*
X38752734Y-36690568D01*
X38939139Y-36560047D01*
X39055303Y-36443882D01*
X39116624Y-36410399D01*
X39186316Y-36415383D01*
X39230664Y-36443884D01*
X40985136Y-38198356D01*
X41018621Y-38259679D01*
X41013637Y-38329371D01*
X40971765Y-38385304D01*
X40906301Y-38409721D01*
X40897455Y-38410037D01*
X33844615Y-38410037D01*
X33777576Y-38390352D01*
X33731821Y-38337548D01*
X33720615Y-38286037D01*
X33720615Y-35745037D01*
X27695862Y-35745037D01*
X27695862Y-38287247D01*
X27676177Y-38354286D01*
X27659543Y-38374928D01*
X27624434Y-38410037D01*
X27624434Y-43636619D01*
X42147777Y-43636619D01*
X42147777Y-39660359D01*
X42167462Y-39593320D01*
X42220266Y-39547565D01*
X42289424Y-39537621D01*
X42352980Y-39566646D01*
X42359458Y-39572678D01*
X45058181Y-42271401D01*
X45091666Y-42332724D01*
X45094500Y-42359082D01*
X45094500Y-47009807D01*
X45074815Y-47076846D01*
X45022011Y-47122601D01*
X44952853Y-47132545D01*
X44912048Y-47119166D01*
X44844344Y-47082978D01*
X44833620Y-47079725D01*
X44800009Y-47069529D01*
X44651031Y-47024337D01*
X44450000Y-47004538D01*
X44248968Y-47024337D01*
X44099991Y-47069529D01*
X44055659Y-47082977D01*
X44055658Y-47082977D01*
X44054575Y-47083306D01*
X43984708Y-47083929D01*
X43955618Y-47069529D01*
X43955114Y-47070454D01*
X43947328Y-47066202D01*
X43812482Y-47015908D01*
X43812483Y-47015908D01*
X43752883Y-47009501D01*
X43752881Y-47009500D01*
X43752873Y-47009500D01*
X43752865Y-47009500D01*
X42865453Y-47009500D01*
X42798414Y-46989815D01*
X42777772Y-46973181D01*
X41140803Y-45336212D01*
X41130980Y-45323950D01*
X41130759Y-45324134D01*
X41125786Y-45318123D01*
X41075364Y-45270773D01*
X41064919Y-45260328D01*
X41054475Y-45249883D01*
X41048986Y-45245625D01*
X41044561Y-45241847D01*
X41010582Y-45209938D01*
X41010580Y-45209936D01*
X41010577Y-45209935D01*
X40993029Y-45200288D01*
X40976763Y-45189604D01*
X40960933Y-45177325D01*
X40918168Y-45158818D01*
X40912922Y-45156248D01*
X40872093Y-45133803D01*
X40872092Y-45133802D01*
X40852693Y-45128822D01*
X40834281Y-45122518D01*
X40815898Y-45114562D01*
X40815892Y-45114560D01*
X40769874Y-45107272D01*
X40764152Y-45106087D01*
X40719021Y-45094500D01*
X40719019Y-45094500D01*
X40698984Y-45094500D01*
X40679586Y-45092973D01*
X40672162Y-45091797D01*
X40659805Y-45089840D01*
X40659804Y-45089840D01*
X40613416Y-45094225D01*
X40607578Y-45094500D01*
X37034499Y-45094500D01*
X36967460Y-45074815D01*
X36921705Y-45022011D01*
X36910499Y-44970500D01*
X36910499Y-44822129D01*
X36910498Y-44822123D01*
X36910497Y-44822116D01*
X36904091Y-44762517D01*
X36853796Y-44627669D01*
X36853795Y-44627668D01*
X36853793Y-44627664D01*
X36767547Y-44512455D01*
X36767544Y-44512452D01*
X36652335Y-44426206D01*
X36652328Y-44426202D01*
X36517482Y-44375908D01*
X36517483Y-44375908D01*
X36457883Y-44369501D01*
X36457881Y-44369500D01*
X36457873Y-44369500D01*
X36457864Y-44369500D01*
X34662129Y-44369500D01*
X34662123Y-44369501D01*
X34602516Y-44375908D01*
X34467671Y-44426202D01*
X34467664Y-44426206D01*
X34352455Y-44512452D01*
X34352452Y-44512455D01*
X34266206Y-44627664D01*
X34266202Y-44627671D01*
X34215908Y-44762517D01*
X34209501Y-44822116D01*
X34209501Y-44822123D01*
X34209500Y-44822135D01*
X34209500Y-46617870D01*
X34209501Y-46617876D01*
X34215908Y-46677483D01*
X34266202Y-46812328D01*
X34266206Y-46812335D01*
X34352452Y-46927544D01*
X34352455Y-46927547D01*
X34467664Y-47013793D01*
X34467671Y-47013797D01*
X34599081Y-47062810D01*
X34655015Y-47104681D01*
X34679432Y-47170145D01*
X34664580Y-47238418D01*
X34643430Y-47266673D01*
X34521503Y-47388600D01*
X34386348Y-47581623D01*
X34331771Y-47625248D01*
X34284773Y-47634500D01*
X28963054Y-47634500D01*
X28896015Y-47614815D01*
X28853696Y-47568953D01*
X28796801Y-47462511D01*
X28796799Y-47462509D01*
X28796798Y-47462506D01*
X28736145Y-47388600D01*
X28668647Y-47306352D01*
X28512495Y-47178203D01*
X28512488Y-47178198D01*
X28334345Y-47082978D01*
X28141031Y-47024337D01*
X27940000Y-47004538D01*
X27738968Y-47024337D01*
X27545655Y-47082978D01*
X27477952Y-47119166D01*
X27409549Y-47133407D01*
X27344306Y-47108406D01*
X27302936Y-47052101D01*
X27295500Y-47009807D01*
X27295500Y-41992737D01*
X27297224Y-41977123D01*
X27296938Y-41977096D01*
X27297672Y-41969333D01*
X27295500Y-41900202D01*
X27295500Y-41870651D01*
X27295500Y-41870650D01*
X27294629Y-41863759D01*
X27294172Y-41857945D01*
X27293790Y-41845795D01*
X27292709Y-41811372D01*
X27287120Y-41792137D01*
X27283174Y-41773084D01*
X27280664Y-41753208D01*
X27263501Y-41709859D01*
X27261614Y-41704346D01*
X27261024Y-41702316D01*
X27248617Y-41659610D01*
X27248616Y-41659608D01*
X27238421Y-41642369D01*
X27229860Y-41624893D01*
X27222486Y-41606269D01*
X27222486Y-41606267D01*
X27208733Y-41587339D01*
X27195083Y-41568550D01*
X27191900Y-41563705D01*
X27168170Y-41523579D01*
X27168165Y-41523573D01*
X27154005Y-41509413D01*
X27141370Y-41494620D01*
X27129593Y-41478412D01*
X27093693Y-41448713D01*
X27089381Y-41444790D01*
X24630803Y-38986212D01*
X24620980Y-38973950D01*
X24620759Y-38974134D01*
X24615786Y-38968123D01*
X24565364Y-38920773D01*
X24554919Y-38910328D01*
X24544475Y-38899883D01*
X24538986Y-38895625D01*
X24534561Y-38891847D01*
X24500582Y-38859938D01*
X24500580Y-38859936D01*
X24500577Y-38859935D01*
X24483029Y-38850288D01*
X24466763Y-38839604D01*
X24450933Y-38827325D01*
X24408168Y-38808818D01*
X24402922Y-38806248D01*
X24362093Y-38783803D01*
X24362092Y-38783802D01*
X24342693Y-38778822D01*
X24324281Y-38772518D01*
X24305898Y-38764562D01*
X24305892Y-38764560D01*
X24259874Y-38757272D01*
X24254152Y-38756087D01*
X24209021Y-38744500D01*
X24209019Y-38744500D01*
X24188984Y-38744500D01*
X24169586Y-38742973D01*
X24162162Y-38741797D01*
X24149805Y-38739840D01*
X24149804Y-38739840D01*
X24103416Y-38744225D01*
X24097578Y-38744500D01*
X24074188Y-38744500D01*
X24007149Y-38724815D01*
X23972613Y-38691623D01*
X23860045Y-38530858D01*
X23699141Y-38369954D01*
X23512734Y-38239432D01*
X23512732Y-38239431D01*
X23306497Y-38143261D01*
X23306488Y-38143258D01*
X23086697Y-38084366D01*
X23086693Y-38084365D01*
X23086692Y-38084365D01*
X23086691Y-38084364D01*
X23086686Y-38084364D01*
X22860002Y-38064532D01*
X22859998Y-38064532D01*
X22633313Y-38084364D01*
X22633302Y-38084366D01*
X22413511Y-38143258D01*
X22413502Y-38143261D01*
X22207267Y-38239431D01*
X22207265Y-38239432D01*
X22020858Y-38369954D01*
X21859954Y-38530858D01*
X21729432Y-38717265D01*
X21729431Y-38717267D01*
X21633261Y-38923502D01*
X21633258Y-38923511D01*
X21574366Y-39143302D01*
X21574364Y-39143313D01*
X21554532Y-39369998D01*
X21554532Y-39370001D01*
X21574364Y-39596686D01*
X21574366Y-39596697D01*
X21633258Y-39816488D01*
X21633261Y-39816497D01*
X21729431Y-40022732D01*
X21729432Y-40022734D01*
X21859954Y-40209141D01*
X22020858Y-40370045D01*
X22020861Y-40370047D01*
X22207266Y-40500568D01*
X22413504Y-40596739D01*
X22633308Y-40655635D01*
X22795230Y-40669801D01*
X22859998Y-40675468D01*
X22860000Y-40675468D01*
X22860002Y-40675468D01*
X22916673Y-40670509D01*
X23086692Y-40655635D01*
X23306496Y-40596739D01*
X23512734Y-40500568D01*
X23699139Y-40370047D01*
X23860047Y-40209139D01*
X23867741Y-40198149D01*
X23922315Y-40154524D01*
X23991813Y-40147327D01*
X24054169Y-40178847D01*
X24056999Y-40181589D01*
X26008181Y-42132771D01*
X26041666Y-42194094D01*
X26044500Y-42220452D01*
X26044500Y-46886000D01*
X26024815Y-46953039D01*
X25972011Y-46998794D01*
X25920500Y-47010000D01*
X25650000Y-47010000D01*
X25650000Y-47925728D01*
X25649701Y-47931808D01*
X25645370Y-47975779D01*
X25580948Y-47925637D01*
X25462576Y-47885000D01*
X25368927Y-47885000D01*
X25276554Y-47900414D01*
X25166486Y-47959981D01*
X25150000Y-47977889D01*
X25150000Y-47010000D01*
X24827155Y-47010000D01*
X24767627Y-47016401D01*
X24767620Y-47016403D01*
X24632913Y-47066645D01*
X24632906Y-47066649D01*
X24517812Y-47152809D01*
X24517809Y-47152812D01*
X24431649Y-47267906D01*
X24431645Y-47267913D01*
X24381403Y-47402620D01*
X24381401Y-47402627D01*
X24375000Y-47462155D01*
X24375000Y-48010000D01*
X25120440Y-48010000D01*
X25081722Y-48052059D01*
X25031449Y-48166670D01*
X25021114Y-48291395D01*
X25051837Y-48412719D01*
X25115394Y-48510000D01*
X24375000Y-48510000D01*
X24375000Y-48780500D01*
X24355315Y-48847539D01*
X24302511Y-48893294D01*
X24251000Y-48904500D01*
X18994188Y-48904500D01*
X18927149Y-48884815D01*
X18892613Y-48851623D01*
X18780045Y-48690858D01*
X18619141Y-48529954D01*
X18432734Y-48399432D01*
X18432732Y-48399431D01*
X18226497Y-48303261D01*
X18226488Y-48303258D01*
X18006697Y-48244366D01*
X18006693Y-48244365D01*
X18006692Y-48244365D01*
X18006691Y-48244364D01*
X18006686Y-48244364D01*
X17780002Y-48224532D01*
X17779998Y-48224532D01*
X17553313Y-48244364D01*
X17553302Y-48244366D01*
X17333511Y-48303258D01*
X17333502Y-48303261D01*
X17127267Y-48399431D01*
X17127265Y-48399432D01*
X16940858Y-48529954D01*
X16779954Y-48690858D01*
X16649432Y-48877265D01*
X16649431Y-48877267D01*
X16553261Y-49083502D01*
X16553258Y-49083511D01*
X16505351Y-49262307D01*
X16468986Y-49321968D01*
X16406139Y-49352497D01*
X16336764Y-49344202D01*
X16297895Y-49317895D01*
X15276319Y-48296319D01*
X15242834Y-48234996D01*
X15240000Y-48208638D01*
X15240000Y-36457870D01*
X16429500Y-36457870D01*
X16429501Y-36457876D01*
X16435908Y-36517483D01*
X16486202Y-36652328D01*
X16486206Y-36652335D01*
X16572452Y-36767544D01*
X16572455Y-36767547D01*
X16687664Y-36853793D01*
X16687671Y-36853797D01*
X16718963Y-36865468D01*
X16822517Y-36904091D01*
X16882127Y-36910500D01*
X17030500Y-36910499D01*
X17097539Y-36930183D01*
X17143294Y-36982987D01*
X17154500Y-37034499D01*
X17154500Y-40695811D01*
X17134815Y-40762850D01*
X17101623Y-40797386D01*
X16940859Y-40909953D01*
X16779954Y-41070858D01*
X16649432Y-41257265D01*
X16649431Y-41257267D01*
X16553261Y-41463502D01*
X16553258Y-41463511D01*
X16494366Y-41683302D01*
X16494364Y-41683313D01*
X16474532Y-41909998D01*
X16474532Y-41910001D01*
X16494364Y-42136686D01*
X16494366Y-42136697D01*
X16553258Y-42356488D01*
X16553261Y-42356497D01*
X16649431Y-42562732D01*
X16649432Y-42562734D01*
X16779954Y-42749141D01*
X16940858Y-42910045D01*
X16940861Y-42910047D01*
X17127266Y-43040568D01*
X17333504Y-43136739D01*
X17553308Y-43195635D01*
X17715230Y-43209801D01*
X17779998Y-43215468D01*
X17780000Y-43215468D01*
X17780002Y-43215468D01*
X17836673Y-43210509D01*
X18006692Y-43195635D01*
X18226496Y-43136739D01*
X18432734Y-43040568D01*
X18619139Y-42910047D01*
X18780047Y-42749139D01*
X18910568Y-42562734D01*
X19006739Y-42356496D01*
X19065635Y-42136692D01*
X19085468Y-41910000D01*
X19080088Y-41848512D01*
X19072653Y-41763524D01*
X19065635Y-41683308D01*
X19017191Y-41502511D01*
X19006741Y-41463511D01*
X19006738Y-41463502D01*
X18999842Y-41448713D01*
X18910568Y-41257266D01*
X18780047Y-41070861D01*
X18780045Y-41070858D01*
X18619140Y-40909953D01*
X18458377Y-40797386D01*
X18414752Y-40742809D01*
X18405500Y-40695811D01*
X18405500Y-37034499D01*
X18425185Y-36967460D01*
X18477989Y-36921705D01*
X18529500Y-36910499D01*
X18677871Y-36910499D01*
X18677872Y-36910499D01*
X18737483Y-36904091D01*
X18872331Y-36853796D01*
X18987546Y-36767546D01*
X19073796Y-36652331D01*
X19124091Y-36517483D01*
X19130500Y-36457873D01*
X19130499Y-34662128D01*
X19124091Y-34602517D01*
X19109861Y-34564365D01*
X19073797Y-34467671D01*
X19073793Y-34467664D01*
X18987547Y-34352455D01*
X18987544Y-34352452D01*
X18872335Y-34266206D01*
X18872328Y-34266202D01*
X18740401Y-34216997D01*
X18684467Y-34175126D01*
X18660050Y-34109662D01*
X18674902Y-34041389D01*
X18696053Y-34013133D01*
X18818108Y-33891078D01*
X18953600Y-33697578D01*
X19053429Y-33483492D01*
X19053432Y-33483486D01*
X19110636Y-33270000D01*
X18213686Y-33270000D01*
X18239493Y-33229844D01*
X18280000Y-33091889D01*
X18280000Y-32948111D01*
X18239493Y-32810156D01*
X18213686Y-32770000D01*
X19110636Y-32770000D01*
X19110635Y-32769999D01*
X19053432Y-32556513D01*
X19053429Y-32556507D01*
X18953600Y-32342422D01*
X18953599Y-32342420D01*
X18818113Y-32148926D01*
X18818108Y-32148920D01*
X18651082Y-31981894D01*
X18457578Y-31846399D01*
X18243492Y-31746570D01*
X18243486Y-31746567D01*
X18030000Y-31689364D01*
X18030000Y-32584498D01*
X17922315Y-32535320D01*
X17815763Y-32520000D01*
X17744237Y-32520000D01*
X17637685Y-32535320D01*
X17530000Y-32584498D01*
X17530000Y-31689364D01*
X17529999Y-31689364D01*
X17316513Y-31746567D01*
X17316507Y-31746570D01*
X17102422Y-31846399D01*
X17102420Y-31846400D01*
X16908926Y-31981886D01*
X16908920Y-31981891D01*
X16741891Y-32148920D01*
X16741886Y-32148926D01*
X16606400Y-32342420D01*
X16606399Y-32342422D01*
X16506570Y-32556507D01*
X16506567Y-32556513D01*
X16449364Y-32769999D01*
X16449364Y-32770000D01*
X17346314Y-32770000D01*
X17320507Y-32810156D01*
X17280000Y-32948111D01*
X17280000Y-33091889D01*
X17320507Y-33229844D01*
X17346314Y-33270000D01*
X16449364Y-33270000D01*
X16506567Y-33483486D01*
X16506570Y-33483492D01*
X16606399Y-33697578D01*
X16741894Y-33891082D01*
X16863946Y-34013134D01*
X16897431Y-34074457D01*
X16892447Y-34144149D01*
X16850575Y-34200082D01*
X16819598Y-34216997D01*
X16687671Y-34266202D01*
X16687664Y-34266206D01*
X16572455Y-34352452D01*
X16572452Y-34352455D01*
X16486206Y-34467664D01*
X16486202Y-34467671D01*
X16435908Y-34602517D01*
X16433060Y-34629013D01*
X16429501Y-34662123D01*
X16429500Y-34662135D01*
X16429500Y-36457870D01*
X15240000Y-36457870D01*
X15240000Y-20371362D01*
X15259685Y-20304323D01*
X15276319Y-20283681D01*
X17743681Y-17816319D01*
X17805004Y-17782834D01*
X17831362Y-17780000D01*
X48208638Y-17780000D01*
X48275677Y-17799685D01*
G37*
%TD.AperFunction*%
%TA.AperFunction,Conductor*%
G36*
X31390703Y-22035739D02*
G01*
X31397181Y-22041771D01*
X32599197Y-23243788D01*
X32609022Y-23256051D01*
X32609243Y-23255869D01*
X32614214Y-23261878D01*
X32640217Y-23286295D01*
X32664635Y-23309226D01*
X32685529Y-23330120D01*
X32691011Y-23334373D01*
X32695443Y-23338157D01*
X32729418Y-23370062D01*
X32746976Y-23379714D01*
X32763235Y-23390395D01*
X32779064Y-23402673D01*
X32821838Y-23421182D01*
X32827056Y-23423738D01*
X32867908Y-23446197D01*
X32887316Y-23451180D01*
X32905717Y-23457480D01*
X32924104Y-23465437D01*
X32967488Y-23472308D01*
X32970119Y-23472725D01*
X32975839Y-23473909D01*
X33020981Y-23485500D01*
X33041016Y-23485500D01*
X33060414Y-23487026D01*
X33080194Y-23490159D01*
X33080195Y-23490160D01*
X33080195Y-23490159D01*
X33080196Y-23490160D01*
X33126584Y-23485775D01*
X33132422Y-23485500D01*
X47510500Y-23485500D01*
X47577539Y-23505185D01*
X47623294Y-23557989D01*
X47634500Y-23609500D01*
X47634500Y-30169546D01*
X47614815Y-30236585D01*
X47598181Y-30257227D01*
X47232818Y-30622589D01*
X47171495Y-30656074D01*
X47101803Y-30651090D01*
X47045870Y-30609218D01*
X47021453Y-30543754D01*
X47021608Y-30524109D01*
X47025468Y-30480000D01*
X47005635Y-30253308D01*
X46946739Y-30033504D01*
X46850568Y-29827266D01*
X46720047Y-29640861D01*
X46720045Y-29640858D01*
X46559140Y-29479953D01*
X46398377Y-29367386D01*
X46354752Y-29312809D01*
X46345500Y-29265811D01*
X46345500Y-29154188D01*
X46365185Y-29087149D01*
X46398377Y-29052613D01*
X46446836Y-29018681D01*
X46559139Y-28940047D01*
X46720047Y-28779139D01*
X46850568Y-28592734D01*
X46946739Y-28386496D01*
X47005635Y-28166692D01*
X47025468Y-27940000D01*
X47005635Y-27713308D01*
X46946739Y-27493504D01*
X46850568Y-27287266D01*
X46720047Y-27100861D01*
X46720045Y-27100858D01*
X46559141Y-26939954D01*
X46372734Y-26809432D01*
X46372732Y-26809431D01*
X46166497Y-26713261D01*
X46166488Y-26713258D01*
X45946697Y-26654366D01*
X45946693Y-26654365D01*
X45946692Y-26654365D01*
X45946691Y-26654364D01*
X45946686Y-26654364D01*
X45720002Y-26634532D01*
X45719998Y-26634532D01*
X45493313Y-26654364D01*
X45493302Y-26654366D01*
X45273511Y-26713258D01*
X45273502Y-26713261D01*
X45067267Y-26809431D01*
X45067265Y-26809432D01*
X44880858Y-26939954D01*
X44719954Y-27100858D01*
X44589432Y-27287265D01*
X44589431Y-27287267D01*
X44493261Y-27493502D01*
X44493258Y-27493511D01*
X44434366Y-27713302D01*
X44434364Y-27713313D01*
X44414532Y-27939998D01*
X44414532Y-27940001D01*
X44434364Y-28166686D01*
X44434366Y-28166697D01*
X44493258Y-28386488D01*
X44493261Y-28386497D01*
X44589431Y-28592732D01*
X44589432Y-28592734D01*
X44719954Y-28779141D01*
X44880858Y-28940045D01*
X45041623Y-29052613D01*
X45085248Y-29107189D01*
X45094500Y-29154188D01*
X45094500Y-29265811D01*
X45074815Y-29332850D01*
X45041623Y-29367386D01*
X44880859Y-29479953D01*
X44719954Y-29640858D01*
X44607387Y-29801623D01*
X44552811Y-29845248D01*
X44505812Y-29854500D01*
X43262743Y-29854500D01*
X43247122Y-29852775D01*
X43247096Y-29853061D01*
X43239334Y-29852327D01*
X43239333Y-29852327D01*
X43170186Y-29854500D01*
X43140649Y-29854500D01*
X43133766Y-29855369D01*
X43127949Y-29855826D01*
X43081373Y-29857290D01*
X43062129Y-29862881D01*
X43043079Y-29866825D01*
X43023211Y-29869334D01*
X42979884Y-29886488D01*
X42974358Y-29888379D01*
X42929614Y-29901379D01*
X42929610Y-29901381D01*
X42912366Y-29911579D01*
X42894905Y-29920133D01*
X42876274Y-29927510D01*
X42876262Y-29927517D01*
X42838570Y-29954902D01*
X42833687Y-29958109D01*
X42793580Y-29981829D01*
X42779414Y-29995995D01*
X42764624Y-30008627D01*
X42748414Y-30020404D01*
X42748411Y-30020407D01*
X42718710Y-30056309D01*
X42714777Y-30060631D01*
X39612818Y-33162589D01*
X39551495Y-33196074D01*
X39481803Y-33191090D01*
X39425870Y-33149218D01*
X39401453Y-33083754D01*
X39401608Y-33064109D01*
X39405468Y-33020000D01*
X39401491Y-32974548D01*
X39393269Y-32880567D01*
X39385635Y-32793308D01*
X39326739Y-32573504D01*
X39230568Y-32367266D01*
X39100047Y-32180861D01*
X39100045Y-32180858D01*
X38939141Y-32019954D01*
X38752734Y-31889432D01*
X38752728Y-31889429D01*
X38694725Y-31862382D01*
X38642285Y-31816210D01*
X38623133Y-31749017D01*
X38643348Y-31682135D01*
X38694725Y-31637618D01*
X38752734Y-31610568D01*
X38939139Y-31480047D01*
X39100047Y-31319139D01*
X39230568Y-31132734D01*
X39326739Y-30926496D01*
X39385635Y-30706692D01*
X39405468Y-30480000D01*
X39385635Y-30253308D01*
X39326739Y-30033504D01*
X39230568Y-29827266D01*
X39100047Y-29640861D01*
X39100045Y-29640858D01*
X38939143Y-29479956D01*
X38913912Y-29462289D01*
X38870287Y-29407712D01*
X38863095Y-29338213D01*
X38894617Y-29275859D01*
X38954847Y-29240445D01*
X38971781Y-29237424D01*
X39007380Y-29233596D01*
X39142086Y-29183354D01*
X39142093Y-29183350D01*
X39257187Y-29097190D01*
X39257190Y-29097187D01*
X39343350Y-28982093D01*
X39343354Y-28982086D01*
X39393596Y-28847379D01*
X39393598Y-28847372D01*
X39399999Y-28787844D01*
X39400000Y-28787827D01*
X39400000Y-28190000D01*
X38415686Y-28190000D01*
X38427641Y-28178045D01*
X38485165Y-28065148D01*
X38504986Y-27940000D01*
X38485165Y-27814852D01*
X38427641Y-27701955D01*
X38415686Y-27690000D01*
X39400000Y-27690000D01*
X39400000Y-27092172D01*
X39399999Y-27092155D01*
X39393598Y-27032627D01*
X39393596Y-27032620D01*
X39343354Y-26897913D01*
X39343350Y-26897906D01*
X39257190Y-26782812D01*
X39257187Y-26782809D01*
X39142093Y-26696649D01*
X39142086Y-26696645D01*
X39007379Y-26646403D01*
X39007372Y-26646401D01*
X38947844Y-26640000D01*
X38350000Y-26640000D01*
X38350000Y-27624314D01*
X38338045Y-27612359D01*
X38225148Y-27554835D01*
X38131481Y-27540000D01*
X38068519Y-27540000D01*
X37974852Y-27554835D01*
X37861955Y-27612359D01*
X37850000Y-27624314D01*
X37850000Y-26640000D01*
X37252155Y-26640000D01*
X37192627Y-26646401D01*
X37192620Y-26646403D01*
X37057913Y-26696645D01*
X37057906Y-26696649D01*
X36942812Y-26782809D01*
X36942809Y-26782812D01*
X36856649Y-26897906D01*
X36856645Y-26897913D01*
X36806403Y-27032620D01*
X36806401Y-27032627D01*
X36800000Y-27092155D01*
X36800000Y-27690000D01*
X37784314Y-27690000D01*
X37772359Y-27701955D01*
X37714835Y-27814852D01*
X37695014Y-27940000D01*
X37714835Y-28065148D01*
X37772359Y-28178045D01*
X37784314Y-28190000D01*
X36800000Y-28190000D01*
X36800000Y-28787844D01*
X36806401Y-28847372D01*
X36806403Y-28847379D01*
X36856645Y-28982086D01*
X36856649Y-28982093D01*
X36942809Y-29097187D01*
X36942812Y-29097190D01*
X37057906Y-29183350D01*
X37057913Y-29183354D01*
X37192620Y-29233596D01*
X37192627Y-29233598D01*
X37228218Y-29237425D01*
X37292769Y-29264163D01*
X37332618Y-29321555D01*
X37335111Y-29391380D01*
X37299459Y-29451469D01*
X37286088Y-29462287D01*
X37260861Y-29479951D01*
X37099954Y-29640858D01*
X36987387Y-29801623D01*
X36932811Y-29845248D01*
X36885812Y-29854500D01*
X35870452Y-29854500D01*
X35803413Y-29834815D01*
X35782771Y-29818181D01*
X31221819Y-25257228D01*
X31188334Y-25195905D01*
X31185500Y-25169547D01*
X31185500Y-22129452D01*
X31205185Y-22062413D01*
X31257989Y-22016658D01*
X31327147Y-22006714D01*
X31390703Y-22035739D01*
G37*
%TD.AperFunction*%
%TD*%
M02*
