%TF.GenerationSoftware,KiCad,Pcbnew,7.0.9*%
%TF.CreationDate,2023-11-22T20:54:51-05:00*%
%TF.ProjectId,connectivity_tester,636f6e6e-6563-4746-9976-6974795f7465,rev?*%
%TF.SameCoordinates,Original*%
%TF.FileFunction,Legend,Top*%
%TF.FilePolarity,Positive*%
%FSLAX46Y46*%
G04 Gerber Fmt 4.6, Leading zero omitted, Abs format (unit mm)*
G04 Created by KiCad (PCBNEW 7.0.9) date 2023-11-22 20:54:51*
%MOMM*%
%LPD*%
G01*
G04 APERTURE LIST*
%ADD10C,0.150000*%
%ADD11C,0.120000*%
G04 APERTURE END LIST*
D10*
X41195714Y-25064819D02*
X40719524Y-25064819D01*
X40719524Y-25064819D02*
X40671905Y-25541009D01*
X40671905Y-25541009D02*
X40719524Y-25493390D01*
X40719524Y-25493390D02*
X40814762Y-25445771D01*
X40814762Y-25445771D02*
X41052857Y-25445771D01*
X41052857Y-25445771D02*
X41148095Y-25493390D01*
X41148095Y-25493390D02*
X41195714Y-25541009D01*
X41195714Y-25541009D02*
X41243333Y-25636247D01*
X41243333Y-25636247D02*
X41243333Y-25874342D01*
X41243333Y-25874342D02*
X41195714Y-25969580D01*
X41195714Y-25969580D02*
X41148095Y-26017200D01*
X41148095Y-26017200D02*
X41052857Y-26064819D01*
X41052857Y-26064819D02*
X40814762Y-26064819D01*
X40814762Y-26064819D02*
X40719524Y-26017200D01*
X40719524Y-26017200D02*
X40671905Y-25969580D01*
X42148095Y-25064819D02*
X41671905Y-25064819D01*
X41671905Y-25064819D02*
X41624286Y-25541009D01*
X41624286Y-25541009D02*
X41671905Y-25493390D01*
X41671905Y-25493390D02*
X41767143Y-25445771D01*
X41767143Y-25445771D02*
X42005238Y-25445771D01*
X42005238Y-25445771D02*
X42100476Y-25493390D01*
X42100476Y-25493390D02*
X42148095Y-25541009D01*
X42148095Y-25541009D02*
X42195714Y-25636247D01*
X42195714Y-25636247D02*
X42195714Y-25874342D01*
X42195714Y-25874342D02*
X42148095Y-25969580D01*
X42148095Y-25969580D02*
X42100476Y-26017200D01*
X42100476Y-26017200D02*
X42005238Y-26064819D01*
X42005238Y-26064819D02*
X41767143Y-26064819D01*
X41767143Y-26064819D02*
X41671905Y-26017200D01*
X41671905Y-26017200D02*
X41624286Y-25969580D01*
X43100476Y-25064819D02*
X42624286Y-25064819D01*
X42624286Y-25064819D02*
X42576667Y-25541009D01*
X42576667Y-25541009D02*
X42624286Y-25493390D01*
X42624286Y-25493390D02*
X42719524Y-25445771D01*
X42719524Y-25445771D02*
X42957619Y-25445771D01*
X42957619Y-25445771D02*
X43052857Y-25493390D01*
X43052857Y-25493390D02*
X43100476Y-25541009D01*
X43100476Y-25541009D02*
X43148095Y-25636247D01*
X43148095Y-25636247D02*
X43148095Y-25874342D01*
X43148095Y-25874342D02*
X43100476Y-25969580D01*
X43100476Y-25969580D02*
X43052857Y-26017200D01*
X43052857Y-26017200D02*
X42957619Y-26064819D01*
X42957619Y-26064819D02*
X42719524Y-26064819D01*
X42719524Y-26064819D02*
X42624286Y-26017200D01*
X42624286Y-26017200D02*
X42576667Y-25969580D01*
X33393333Y-51207200D02*
X33536190Y-51254819D01*
X33536190Y-51254819D02*
X33774285Y-51254819D01*
X33774285Y-51254819D02*
X33869523Y-51207200D01*
X33869523Y-51207200D02*
X33917142Y-51159580D01*
X33917142Y-51159580D02*
X33964761Y-51064342D01*
X33964761Y-51064342D02*
X33964761Y-50969104D01*
X33964761Y-50969104D02*
X33917142Y-50873866D01*
X33917142Y-50873866D02*
X33869523Y-50826247D01*
X33869523Y-50826247D02*
X33774285Y-50778628D01*
X33774285Y-50778628D02*
X33583809Y-50731009D01*
X33583809Y-50731009D02*
X33488571Y-50683390D01*
X33488571Y-50683390D02*
X33440952Y-50635771D01*
X33440952Y-50635771D02*
X33393333Y-50540533D01*
X33393333Y-50540533D02*
X33393333Y-50445295D01*
X33393333Y-50445295D02*
X33440952Y-50350057D01*
X33440952Y-50350057D02*
X33488571Y-50302438D01*
X33488571Y-50302438D02*
X33583809Y-50254819D01*
X33583809Y-50254819D02*
X33821904Y-50254819D01*
X33821904Y-50254819D02*
X33964761Y-50302438D01*
X34393333Y-51254819D02*
X34393333Y-50254819D01*
X34393333Y-50254819D02*
X34774285Y-50254819D01*
X34774285Y-50254819D02*
X34869523Y-50302438D01*
X34869523Y-50302438D02*
X34917142Y-50350057D01*
X34917142Y-50350057D02*
X34964761Y-50445295D01*
X34964761Y-50445295D02*
X34964761Y-50588152D01*
X34964761Y-50588152D02*
X34917142Y-50683390D01*
X34917142Y-50683390D02*
X34869523Y-50731009D01*
X34869523Y-50731009D02*
X34774285Y-50778628D01*
X34774285Y-50778628D02*
X34393333Y-50778628D01*
X35393333Y-50731009D02*
X35726666Y-50731009D01*
X35869523Y-51254819D02*
X35393333Y-51254819D01*
X35393333Y-51254819D02*
X35393333Y-50254819D01*
X35393333Y-50254819D02*
X35869523Y-50254819D01*
X36250476Y-50969104D02*
X36726666Y-50969104D01*
X36155238Y-51254819D02*
X36488571Y-50254819D01*
X36488571Y-50254819D02*
X36821904Y-51254819D01*
X37155238Y-51254819D02*
X37155238Y-50254819D01*
X37726666Y-51254819D02*
X37298095Y-50683390D01*
X37726666Y-50254819D02*
X37155238Y-50826247D01*
X21423333Y-18404819D02*
X21090000Y-17928628D01*
X20851905Y-18404819D02*
X20851905Y-17404819D01*
X20851905Y-17404819D02*
X21232857Y-17404819D01*
X21232857Y-17404819D02*
X21328095Y-17452438D01*
X21328095Y-17452438D02*
X21375714Y-17500057D01*
X21375714Y-17500057D02*
X21423333Y-17595295D01*
X21423333Y-17595295D02*
X21423333Y-17738152D01*
X21423333Y-17738152D02*
X21375714Y-17833390D01*
X21375714Y-17833390D02*
X21328095Y-17881009D01*
X21328095Y-17881009D02*
X21232857Y-17928628D01*
X21232857Y-17928628D02*
X20851905Y-17928628D01*
X22280476Y-17738152D02*
X22280476Y-18404819D01*
X22042381Y-17357200D02*
X21804286Y-18071485D01*
X21804286Y-18071485D02*
X22423333Y-18071485D01*
X43013333Y-23144819D02*
X42680000Y-22668628D01*
X42441905Y-23144819D02*
X42441905Y-22144819D01*
X42441905Y-22144819D02*
X42822857Y-22144819D01*
X42822857Y-22144819D02*
X42918095Y-22192438D01*
X42918095Y-22192438D02*
X42965714Y-22240057D01*
X42965714Y-22240057D02*
X43013333Y-22335295D01*
X43013333Y-22335295D02*
X43013333Y-22478152D01*
X43013333Y-22478152D02*
X42965714Y-22573390D01*
X42965714Y-22573390D02*
X42918095Y-22621009D01*
X42918095Y-22621009D02*
X42822857Y-22668628D01*
X42822857Y-22668628D02*
X42441905Y-22668628D01*
X43346667Y-22144819D02*
X43965714Y-22144819D01*
X43965714Y-22144819D02*
X43632381Y-22525771D01*
X43632381Y-22525771D02*
X43775238Y-22525771D01*
X43775238Y-22525771D02*
X43870476Y-22573390D01*
X43870476Y-22573390D02*
X43918095Y-22621009D01*
X43918095Y-22621009D02*
X43965714Y-22716247D01*
X43965714Y-22716247D02*
X43965714Y-22954342D01*
X43965714Y-22954342D02*
X43918095Y-23049580D01*
X43918095Y-23049580D02*
X43870476Y-23097200D01*
X43870476Y-23097200D02*
X43775238Y-23144819D01*
X43775238Y-23144819D02*
X43489524Y-23144819D01*
X43489524Y-23144819D02*
X43394286Y-23097200D01*
X43394286Y-23097200D02*
X43346667Y-23049580D01*
X25684819Y-35726666D02*
X25208628Y-36059999D01*
X25684819Y-36298094D02*
X24684819Y-36298094D01*
X24684819Y-36298094D02*
X24684819Y-35917142D01*
X24684819Y-35917142D02*
X24732438Y-35821904D01*
X24732438Y-35821904D02*
X24780057Y-35774285D01*
X24780057Y-35774285D02*
X24875295Y-35726666D01*
X24875295Y-35726666D02*
X25018152Y-35726666D01*
X25018152Y-35726666D02*
X25113390Y-35774285D01*
X25113390Y-35774285D02*
X25161009Y-35821904D01*
X25161009Y-35821904D02*
X25208628Y-35917142D01*
X25208628Y-35917142D02*
X25208628Y-36298094D01*
X24780057Y-35345713D02*
X24732438Y-35298094D01*
X24732438Y-35298094D02*
X24684819Y-35202856D01*
X24684819Y-35202856D02*
X24684819Y-34964761D01*
X24684819Y-34964761D02*
X24732438Y-34869523D01*
X24732438Y-34869523D02*
X24780057Y-34821904D01*
X24780057Y-34821904D02*
X24875295Y-34774285D01*
X24875295Y-34774285D02*
X24970533Y-34774285D01*
X24970533Y-34774285D02*
X25113390Y-34821904D01*
X25113390Y-34821904D02*
X25684819Y-35393332D01*
X25684819Y-35393332D02*
X25684819Y-34774285D01*
X20774819Y-45886666D02*
X20298628Y-46219999D01*
X20774819Y-46458094D02*
X19774819Y-46458094D01*
X19774819Y-46458094D02*
X19774819Y-46077142D01*
X19774819Y-46077142D02*
X19822438Y-45981904D01*
X19822438Y-45981904D02*
X19870057Y-45934285D01*
X19870057Y-45934285D02*
X19965295Y-45886666D01*
X19965295Y-45886666D02*
X20108152Y-45886666D01*
X20108152Y-45886666D02*
X20203390Y-45934285D01*
X20203390Y-45934285D02*
X20251009Y-45981904D01*
X20251009Y-45981904D02*
X20298628Y-46077142D01*
X20298628Y-46077142D02*
X20298628Y-46458094D01*
X20774819Y-44934285D02*
X20774819Y-45505713D01*
X20774819Y-45219999D02*
X19774819Y-45219999D01*
X19774819Y-45219999D02*
X19917676Y-45315237D01*
X19917676Y-45315237D02*
X20012914Y-45410475D01*
X20012914Y-45410475D02*
X20060533Y-45505713D01*
X26574761Y-45250057D02*
X26479523Y-45202438D01*
X26479523Y-45202438D02*
X26384285Y-45107200D01*
X26384285Y-45107200D02*
X26241428Y-44964342D01*
X26241428Y-44964342D02*
X26146190Y-44916723D01*
X26146190Y-44916723D02*
X26050952Y-44916723D01*
X26098571Y-45154819D02*
X26003333Y-45107200D01*
X26003333Y-45107200D02*
X25908095Y-45011961D01*
X25908095Y-45011961D02*
X25860476Y-44821485D01*
X25860476Y-44821485D02*
X25860476Y-44488152D01*
X25860476Y-44488152D02*
X25908095Y-44297676D01*
X25908095Y-44297676D02*
X26003333Y-44202438D01*
X26003333Y-44202438D02*
X26098571Y-44154819D01*
X26098571Y-44154819D02*
X26289047Y-44154819D01*
X26289047Y-44154819D02*
X26384285Y-44202438D01*
X26384285Y-44202438D02*
X26479523Y-44297676D01*
X26479523Y-44297676D02*
X26527142Y-44488152D01*
X26527142Y-44488152D02*
X26527142Y-44821485D01*
X26527142Y-44821485D02*
X26479523Y-45011961D01*
X26479523Y-45011961D02*
X26384285Y-45107200D01*
X26384285Y-45107200D02*
X26289047Y-45154819D01*
X26289047Y-45154819D02*
X26098571Y-45154819D01*
X26908095Y-44250057D02*
X26955714Y-44202438D01*
X26955714Y-44202438D02*
X27050952Y-44154819D01*
X27050952Y-44154819D02*
X27289047Y-44154819D01*
X27289047Y-44154819D02*
X27384285Y-44202438D01*
X27384285Y-44202438D02*
X27431904Y-44250057D01*
X27431904Y-44250057D02*
X27479523Y-44345295D01*
X27479523Y-44345295D02*
X27479523Y-44440533D01*
X27479523Y-44440533D02*
X27431904Y-44583390D01*
X27431904Y-44583390D02*
X26860476Y-45154819D01*
X26860476Y-45154819D02*
X27479523Y-45154819D01*
X44354761Y-45250057D02*
X44259523Y-45202438D01*
X44259523Y-45202438D02*
X44164285Y-45107200D01*
X44164285Y-45107200D02*
X44021428Y-44964342D01*
X44021428Y-44964342D02*
X43926190Y-44916723D01*
X43926190Y-44916723D02*
X43830952Y-44916723D01*
X43878571Y-45154819D02*
X43783333Y-45107200D01*
X43783333Y-45107200D02*
X43688095Y-45011961D01*
X43688095Y-45011961D02*
X43640476Y-44821485D01*
X43640476Y-44821485D02*
X43640476Y-44488152D01*
X43640476Y-44488152D02*
X43688095Y-44297676D01*
X43688095Y-44297676D02*
X43783333Y-44202438D01*
X43783333Y-44202438D02*
X43878571Y-44154819D01*
X43878571Y-44154819D02*
X44069047Y-44154819D01*
X44069047Y-44154819D02*
X44164285Y-44202438D01*
X44164285Y-44202438D02*
X44259523Y-44297676D01*
X44259523Y-44297676D02*
X44307142Y-44488152D01*
X44307142Y-44488152D02*
X44307142Y-44821485D01*
X44307142Y-44821485D02*
X44259523Y-45011961D01*
X44259523Y-45011961D02*
X44164285Y-45107200D01*
X44164285Y-45107200D02*
X44069047Y-45154819D01*
X44069047Y-45154819D02*
X43878571Y-45154819D01*
X45259523Y-45154819D02*
X44688095Y-45154819D01*
X44973809Y-45154819D02*
X44973809Y-44154819D01*
X44973809Y-44154819D02*
X44878571Y-44297676D01*
X44878571Y-44297676D02*
X44783333Y-44392914D01*
X44783333Y-44392914D02*
X44688095Y-44440533D01*
X15588986Y-36512367D02*
X14588986Y-36512367D01*
X14588986Y-36512367D02*
X14588986Y-36131415D01*
X14588986Y-36131415D02*
X14636605Y-36036177D01*
X14636605Y-36036177D02*
X14684224Y-35988558D01*
X14684224Y-35988558D02*
X14779462Y-35940939D01*
X14779462Y-35940939D02*
X14922319Y-35940939D01*
X14922319Y-35940939D02*
X15017557Y-35988558D01*
X15017557Y-35988558D02*
X15065176Y-36036177D01*
X15065176Y-36036177D02*
X15112795Y-36131415D01*
X15112795Y-36131415D02*
X15112795Y-36512367D01*
X15588986Y-34940939D02*
X15112795Y-35274272D01*
X15588986Y-35512367D02*
X14588986Y-35512367D01*
X14588986Y-35512367D02*
X14588986Y-35131415D01*
X14588986Y-35131415D02*
X14636605Y-35036177D01*
X14636605Y-35036177D02*
X14684224Y-34988558D01*
X14684224Y-34988558D02*
X14779462Y-34940939D01*
X14779462Y-34940939D02*
X14922319Y-34940939D01*
X14922319Y-34940939D02*
X15017557Y-34988558D01*
X15017557Y-34988558D02*
X15065176Y-35036177D01*
X15065176Y-35036177D02*
X15112795Y-35131415D01*
X15112795Y-35131415D02*
X15112795Y-35512367D01*
X14588986Y-34321891D02*
X14588986Y-34131415D01*
X14588986Y-34131415D02*
X14636605Y-34036177D01*
X14636605Y-34036177D02*
X14731843Y-33940939D01*
X14731843Y-33940939D02*
X14922319Y-33893320D01*
X14922319Y-33893320D02*
X15255652Y-33893320D01*
X15255652Y-33893320D02*
X15446128Y-33940939D01*
X15446128Y-33940939D02*
X15541367Y-34036177D01*
X15541367Y-34036177D02*
X15588986Y-34131415D01*
X15588986Y-34131415D02*
X15588986Y-34321891D01*
X15588986Y-34321891D02*
X15541367Y-34417129D01*
X15541367Y-34417129D02*
X15446128Y-34512367D01*
X15446128Y-34512367D02*
X15255652Y-34559986D01*
X15255652Y-34559986D02*
X14922319Y-34559986D01*
X14922319Y-34559986D02*
X14731843Y-34512367D01*
X14731843Y-34512367D02*
X14636605Y-34417129D01*
X14636605Y-34417129D02*
X14588986Y-34321891D01*
X15065176Y-33131415D02*
X15112795Y-32988558D01*
X15112795Y-32988558D02*
X15160414Y-32940939D01*
X15160414Y-32940939D02*
X15255652Y-32893320D01*
X15255652Y-32893320D02*
X15398509Y-32893320D01*
X15398509Y-32893320D02*
X15493747Y-32940939D01*
X15493747Y-32940939D02*
X15541367Y-32988558D01*
X15541367Y-32988558D02*
X15588986Y-33083796D01*
X15588986Y-33083796D02*
X15588986Y-33464748D01*
X15588986Y-33464748D02*
X14588986Y-33464748D01*
X14588986Y-33464748D02*
X14588986Y-33131415D01*
X14588986Y-33131415D02*
X14636605Y-33036177D01*
X14636605Y-33036177D02*
X14684224Y-32988558D01*
X14684224Y-32988558D02*
X14779462Y-32940939D01*
X14779462Y-32940939D02*
X14874700Y-32940939D01*
X14874700Y-32940939D02*
X14969938Y-32988558D01*
X14969938Y-32988558D02*
X15017557Y-33036177D01*
X15017557Y-33036177D02*
X15065176Y-33131415D01*
X15065176Y-33131415D02*
X15065176Y-33464748D01*
X15065176Y-32464748D02*
X15065176Y-32131415D01*
X15588986Y-31988558D02*
X15588986Y-32464748D01*
X15588986Y-32464748D02*
X14588986Y-32464748D01*
X14588986Y-32464748D02*
X14588986Y-31988558D01*
X32893333Y-18179580D02*
X32845714Y-18227200D01*
X32845714Y-18227200D02*
X32702857Y-18274819D01*
X32702857Y-18274819D02*
X32607619Y-18274819D01*
X32607619Y-18274819D02*
X32464762Y-18227200D01*
X32464762Y-18227200D02*
X32369524Y-18131961D01*
X32369524Y-18131961D02*
X32321905Y-18036723D01*
X32321905Y-18036723D02*
X32274286Y-17846247D01*
X32274286Y-17846247D02*
X32274286Y-17703390D01*
X32274286Y-17703390D02*
X32321905Y-17512914D01*
X32321905Y-17512914D02*
X32369524Y-17417676D01*
X32369524Y-17417676D02*
X32464762Y-17322438D01*
X32464762Y-17322438D02*
X32607619Y-17274819D01*
X32607619Y-17274819D02*
X32702857Y-17274819D01*
X32702857Y-17274819D02*
X32845714Y-17322438D01*
X32845714Y-17322438D02*
X32893333Y-17370057D01*
X33845714Y-18274819D02*
X33274286Y-18274819D01*
X33560000Y-18274819D02*
X33560000Y-17274819D01*
X33560000Y-17274819D02*
X33464762Y-17417676D01*
X33464762Y-17417676D02*
X33369524Y-17512914D01*
X33369524Y-17512914D02*
X33274286Y-17560533D01*
D11*
%TO.C,555*%
X40910000Y-26610000D02*
G75*
G03*
X42910000Y-26610000I1000000J0D01*
G01*
X39260000Y-36890000D02*
X44560000Y-36890000D01*
X40910000Y-26610000D02*
X39260000Y-26610000D01*
X44560000Y-36890000D02*
X44560000Y-26610000D01*
X39260000Y-26610000D02*
X39260000Y-36890000D01*
X44560000Y-26610000D02*
X42910000Y-26610000D01*
%TO.C,SPEAK*%
X34230000Y-46990000D02*
X34230000Y-49590000D01*
X36890000Y-46990000D02*
X36890000Y-49590000D01*
X34230000Y-46990000D02*
X36890000Y-46990000D01*
X35560000Y-44390000D02*
X36890000Y-44390000D01*
X36890000Y-44390000D02*
X36890000Y-45720000D01*
X34230000Y-49590000D02*
X36890000Y-49590000D01*
%TO.C,R4*%
X24860000Y-18950000D02*
X24860000Y-19280000D01*
X18320000Y-19280000D02*
X18320000Y-18950000D01*
X18320000Y-21360000D02*
X18320000Y-21690000D01*
X18320000Y-21690000D02*
X24860000Y-21690000D01*
X18320000Y-18950000D02*
X24860000Y-18950000D01*
X24860000Y-21690000D02*
X24860000Y-21360000D01*
%TO.C,R3*%
X39910000Y-21690000D02*
X39910000Y-21360000D01*
X46450000Y-21360000D02*
X46450000Y-21690000D01*
X46450000Y-19280000D02*
X46450000Y-18950000D01*
X46450000Y-18950000D02*
X39910000Y-18950000D01*
X46450000Y-21690000D02*
X39910000Y-21690000D01*
X39910000Y-18950000D02*
X39910000Y-19280000D01*
%TO.C,R2*%
X24230000Y-38830000D02*
X23900000Y-38830000D01*
X23900000Y-32290000D02*
X24230000Y-32290000D01*
X21820000Y-32290000D02*
X21490000Y-32290000D01*
X21490000Y-32290000D02*
X21490000Y-38830000D01*
X24230000Y-32290000D02*
X24230000Y-38830000D01*
X21490000Y-38830000D02*
X21820000Y-38830000D01*
%TO.C,R1*%
X19150000Y-42450000D02*
X18820000Y-42450000D01*
X16410000Y-48990000D02*
X16410000Y-42450000D01*
X19150000Y-48990000D02*
X19150000Y-42450000D01*
X18820000Y-48990000D02*
X19150000Y-48990000D01*
X16740000Y-48990000D02*
X16410000Y-48990000D01*
X16410000Y-42450000D02*
X16740000Y-42450000D01*
%TO.C,Q2*%
X24870000Y-50110000D02*
X28470000Y-50110000D01*
X28508478Y-50098478D02*
G75*
G03*
X26670000Y-45660000I-1838478J1838478D01*
G01*
X26670000Y-45660000D02*
G75*
G03*
X24831522Y-50098478I0J-2600000D01*
G01*
%TO.C,Q1*%
X42650000Y-50110000D02*
X46250000Y-50110000D01*
X46288478Y-50098478D02*
G75*
G03*
X44450000Y-45660000I-1838478J1838478D01*
G01*
X44450000Y-45660000D02*
G75*
G03*
X42611522Y-50098478I0J-2600000D01*
G01*
%TO.C,PROBE*%
X19110000Y-34290000D02*
X19110000Y-31690000D01*
X16450000Y-34290000D02*
X16450000Y-31690000D01*
X19110000Y-34290000D02*
X16450000Y-34290000D01*
X17780000Y-36890000D02*
X16450000Y-36890000D01*
X16450000Y-36890000D02*
X16450000Y-35560000D01*
X19110000Y-31690000D02*
X16450000Y-31690000D01*
%TO.C,C1*%
X29940000Y-21690000D02*
X36180000Y-21690000D01*
X29940000Y-18950000D02*
X29940000Y-19395000D01*
X29940000Y-18950000D02*
X36180000Y-18950000D01*
X36180000Y-18950000D02*
X36180000Y-19395000D01*
X36180000Y-21245000D02*
X36180000Y-21690000D01*
X29940000Y-21245000D02*
X29940000Y-21690000D01*
%TD*%
M02*
