M48
; DRILL file {KiCad 7.0.9} date Wed 22 Nov 2023 08:54:58 PM EST
; FORMAT={-:-/ absolute / inch / decimal}
; #@! TF.CreationDate,2023-11-22T20:54:58-05:00
; #@! TF.GenerationSoftware,Kicad,Pcbnew,7.0.9
; #@! TF.FileFunction,Plated,1,2,PTH
FMAT,2
INCH
; #@! TA.AperFunction,Plated,PTH,ComponentDrill
T1C0.0295
; #@! TA.AperFunction,Plated,PTH,ComponentDrill
T2C0.0315
; #@! TA.AperFunction,Plated,PTH,ComponentDrill
T3C0.0394
%
G90
G05
T1
X1.0Y-1.9
X1.05Y-1.9
X1.1Y-1.9
X1.7Y-1.9
X1.75Y-1.9
X1.8Y-1.9
T2
X0.7Y-0.8
X0.7Y-1.65
X0.7Y-1.95
X0.9Y-1.25
X0.9Y-1.55
X1.0Y-0.8
X1.2031Y-0.8
X1.4Y-0.8
X1.5Y-1.1
X1.5Y-1.2
X1.5Y-1.3
X1.5Y-1.4
X1.55Y-0.8
X1.8Y-1.1
X1.8Y-1.2
X1.8Y-1.3
X1.8Y-1.4
X1.85Y-0.8
T3
X0.7Y-1.3
X0.7Y-1.4
X1.4Y-1.8
X1.4Y-1.9
T0
M30
